<svg width="63" height="40" viewBox="0 0 63 40" fill="none" xmlns="http://www.w3.org/2000/svg">
<g opacity="0.75">
<g clip-path="url(#clip0_2133_2862)">
<path d="M14.7646 20.3508V20.3917V20.6637V38.9988V39.3117H22.5089H22.8218H30.5661V38.9988V20.6637V20.3917V20.3508H14.7646Z" fill="#232323"/>
<path d="M53.0637 20.0645C54.8611 20.0645 56.5045 20.4967 57.9934 21.3605C59.483 22.225 60.6578 23.4035 61.5172 24.8975C62.3773 26.3908 62.807 28.0368 62.807 29.8342C62.807 31.6316 62.3773 33.2775 61.5172 34.7709C60.6578 36.2648 59.483 37.444 57.9934 38.3078C56.5039 39.1723 54.8611 39.6039 53.0637 39.6039C51.2663 39.6039 49.6203 39.1723 48.127 38.3078C46.633 37.444 45.4538 36.2648 44.59 34.7709C43.7255 33.2775 43.2939 31.6316 43.2939 29.8342C43.2939 28.0368 43.7255 26.3908 44.59 24.8975C45.4538 23.4035 46.633 22.225 48.127 21.3605C49.6203 20.4967 51.2663 20.0645 53.0637 20.0645Z" fill="#232323"/>
<path d="M36.4015 28.1259L44.2909 20.6159L44.5283 20.3917L44.5711 20.3508H44.1087H32.5648H32.252V20.3917V20.4683V39.1998V39.3117H32.5648H45.6284L45.4079 39.0465L36.4015 28.1259Z" fill="#232323"/>
<path d="M4.14951 28.1259L12.0389 20.6159L12.2764 20.3917L12.3191 20.3508H11.8567H0.312234H0V20.3917V20.4683V39.1998V39.3117H0.312234H13.3764L13.1559 39.0465L4.14951 28.1259Z" fill="#232323"/>
</g>
<path d="M46.5576 0.283691V0.324133V0.593538V18.7519V19.0617H54.2272H54.5365H62.2067V18.7519V0.593538V0.324133V0.283691H46.5576Z" fill="#232323"/>
<path d="M4.10951 7.98381L11.9229 0.546252L12.158 0.324133L12.2004 0.283691H11.7424H0.309224H0V0.324133V0.400039V18.951V19.0617H0.309224H13.2475L13.0291 18.7992L4.10951 7.98381Z" fill="#232323"/>
<path d="M20.6101 0C22.3902 0 24.0178 0.428061 25.4924 1.28356C26.9676 2.13968 28.131 3.30689 28.9822 4.78644C29.834 6.26537 30.2595 7.89548 30.2595 9.67554C30.2595 11.4556 29.834 13.0857 28.9822 14.5646C28.131 16.0442 26.9676 17.212 25.4924 18.0675C24.0172 18.9236 22.3902 19.3511 20.6101 19.3511C18.8301 19.3511 17.1999 18.9236 15.721 18.0675C14.2415 17.212 13.0736 16.0442 12.2181 14.5646C11.362 13.0857 10.9346 11.4556 10.9346 9.67554C10.9346 7.89548 11.362 6.26537 12.2181 4.78644C13.0736 3.30689 14.2415 2.13968 15.721 1.28356C17.1999 0.428061 18.8294 0 20.6101 0Z" fill="#232323"/>
<path d="M36.0451 7.98381L43.8578 0.546252L44.0936 0.324133L44.1359 0.283691H43.678H32.2448H31.9355V0.324133V0.400039V18.951V19.0617H32.2448H45.183L44.9647 18.7992L36.0451 7.98381Z" fill="#232323"/>
</g>
<defs>
<clipPath id="clip0_2133_2862">
<rect width="62.8061" height="19.5388" fill="white" transform="translate(0 20.0645)"/>
</clipPath>
</defs>
</svg>
