<svg width="175" height="250" viewBox="0 0 175 250" fill="none" xmlns="http://www.w3.org/2000/svg">
<g clip-path="url(#clip0_2101_3216)">
<path d="M73.1215 234.232C73.0044 233.503 72.9193 232.907 72.8075 232.316C72.6212 231.347 72.0518 230.698 71.1258 230.363C70.0722 229.985 69.0344 229.565 67.9648 229.24C65.2507 228.415 62.4621 227.792 59.8172 226.787C57.0979 225.754 54.5115 224.408 52.468 222.173C50.9886 220.555 49.4027 219.028 48.3171 217.101C47.886 216.335 47.6572 215.451 47.2953 214.648C46.5343 212.982 46.2789 211.215 46.2363 209.411C46.199 207.788 46.0713 206.149 46.2256 204.542C46.3587 203.158 46.4438 201.727 47.0611 200.412C47.4071 199.678 47.7423 198.906 47.8966 198.119C47.9924 197.629 47.8168 197.038 47.6306 196.549C47.4816 196.166 47.0984 195.884 46.8642 195.522C46.6354 195.165 46.2842 194.771 46.2948 194.399C46.3321 193.052 45.5604 192.11 44.9431 191.041C44.4588 190.2 44.363 189.12 45.1187 188.263C46.6673 186.512 47.3325 184.309 48.3703 182.223C48.1627 182.074 48.0137 181.93 47.8328 181.845C44.5653 180.381 41.7235 178.317 39.5256 175.496C38.1633 173.745 37.0404 171.813 35.8164 169.956C35.5077 169.493 35.2257 169.014 34.917 168.557C33.3631 166.258 33.0811 163.528 32.32 160.957C32.2243 160.638 32.2934 160.271 32.2615 159.93C32.2136 159.419 32.1498 158.914 32.0699 158.403C31.9688 157.727 31.7666 157.062 31.7453 156.386C31.6921 154.763 31.6814 153.129 31.74 151.506C31.7666 150.75 31.9954 150.005 32.1391 149.255C32.171 149.09 32.2668 148.925 32.2668 148.76C32.2668 146.264 33.2088 143.986 33.9378 141.666C34.1401 141.027 34.6297 140.479 34.9224 139.862C35.7206 138.186 36.6998 136.637 38.3282 135.45C38.0249 134.961 37.7907 134.578 37.546 134.2C36.8807 133.146 36.1836 132.119 35.5663 131.039C35.3428 130.645 35.3162 130.134 35.1938 129.676C35.0288 129.059 34.8585 128.442 34.6722 127.824C34.6084 127.622 34.4062 127.436 34.4062 127.244C34.4381 125.807 33.5334 125.233 32.336 124.834C31.3568 124.509 30.4894 124.019 29.771 123.194C28.9993 122.311 28.6108 121.374 28.3873 120.225C28.1266 118.863 27.7168 117.511 26.5194 116.521C25.7744 115.904 25.2209 115.036 24.6355 114.243C23.9703 113.349 23.3264 112.439 22.7516 111.487C22.3578 110.838 22.0811 110.108 21.8044 109.395C21.6394 108.97 21.5756 108.507 21.4744 108.086C20.4952 108.922 19.5799 109.725 18.638 110.497C16.5199 112.237 14.3168 112.04 12.0444 110.8C10.9588 110.21 10.3574 109.342 10.3415 108.129C10.3255 106.931 10.3734 105.745 10.5809 104.542C10.8044 103.249 10.549 101.881 10.6341 100.556C10.7512 98.7839 10.863 97.0064 11.3047 95.2716C11.5335 94.3722 11.9539 93.5952 12.667 92.9779C12.848 92.8183 12.965 92.5841 13.2098 92.2542C12.7469 92.2063 12.4329 92.1477 12.1136 92.1424C9.07489 92.0679 6.85574 90.5193 5.10491 88.1831C4.86543 87.8638 4.74303 87.3795 4.74835 86.9697C4.76964 85.5595 4.25344 84.3142 3.73191 83.0423C2.98155 81.217 2.26844 79.3703 1.66177 77.4918C1.3744 76.6084 1.36908 75.6345 1.23604 74.6979C1.15621 74.1444 1.18814 73.5484 0.980594 73.0429C0.368599 71.5262 0.751761 69.9722 0.767726 68.4502C0.783691 67.1358 1.10831 65.8213 1.30522 64.5069C1.46487 63.4478 1.56066 62.3675 1.8161 61.3351C2.14604 60.01 2.56114 58.6956 3.03477 57.4077C4.38648 53.7624 6.20118 50.3618 8.64383 47.3178C8.96846 46.9133 9.30905 46.5195 9.56449 46.0725C10.8364 43.8587 12.4967 41.9376 14.1518 40.0271C15.0724 38.9627 16.206 38.074 17.2969 37.164C19.0158 35.7325 20.7507 34.3275 22.5228 32.9652C24.0501 31.7891 25.636 30.6769 27.2006 29.5433C27.4454 29.3677 27.7274 29.24 27.9509 29.0378C30.2073 27.0102 32.9533 25.7117 35.4439 24.0354C37.546 22.6198 39.7012 21.2841 41.8193 19.8951C43.4317 18.8308 44.9697 17.6387 46.6407 16.6755C49.1739 15.2227 51.7921 13.9188 54.3731 12.5512C55.0916 12.168 55.7887 11.7316 56.5391 11.4283C57.6513 10.9813 58.8061 10.6354 59.9343 10.2416C60.7858 9.94354 61.6319 9.63488 62.4781 9.32622C63.3242 9.01756 64.1651 8.69826 65.0112 8.3896C65.1336 8.34703 65.272 8.34171 65.3784 8.27253C67.8211 6.68134 70.764 6.26093 73.2865 4.86132C73.9996 4.46752 74.6648 3.96195 75.4151 3.66394C77.9695 2.65814 80.5399 1.68427 83.1369 0.790225C84.4727 0.327238 85.8244 0.353846 87.0856 1.43415C87.1122 1.82263 87.1974 2.29094 87.1601 2.74861C87.0058 4.47284 86.4204 6.08531 85.7233 7.65521C85.1272 9.0016 84.3503 10.2149 83.254 11.2314C82.956 11.5081 82.8123 11.9498 82.4451 12.5884C82.6792 12.7055 82.9932 12.764 83.1263 12.9503C83.8021 13.9135 84.2385 14.8395 83.8128 16.1646C83.4349 17.3247 83.0358 18.405 82.3067 19.3736C81.6096 20.3049 81.3169 21.3586 81.4233 22.5293C81.4606 22.9551 81.4233 23.3915 81.4446 23.8225C81.4925 24.8549 81.5085 25.8607 81.0668 26.8559C80.8539 27.3295 80.9178 27.9202 80.8273 28.7504C82.8229 27.404 84.8665 27.9149 86.9898 27.6967C86.6758 26.4248 87.2719 25.1583 86.4949 23.8385C87.2399 22.4336 87.9371 20.9009 88.8205 19.4907C90.417 16.9416 92.8171 15.2812 95.43 13.9188C95.7546 13.7485 96.191 13.706 96.5635 13.7432C98.011 13.8869 99.3415 13.4931 100.699 13.0727C102.545 12.5033 104.418 12.0137 106.302 11.5773C107.042 11.407 107.84 11.4868 108.612 11.423C109.676 11.3325 110.751 11.0877 111.805 11.1462C113.21 11.2207 114.62 11.4389 115.998 11.7316C118.01 12.1574 120.027 12.6257 121.991 13.227C123.502 13.69 124.981 14.2967 126.397 14.9938C129.851 16.6861 133.022 18.8095 135.774 21.5289C136.077 21.8322 136.38 22.1515 136.726 22.3963C138.85 23.8917 140.643 25.7543 142.41 27.6222C143.352 28.612 144.113 29.7828 144.885 30.9217C146.119 32.731 147.332 34.5617 148.493 36.4243C149.605 38.2124 150.643 40.0484 151.712 41.8631C151.755 41.9376 151.787 42.0227 151.835 42.0919C153.995 45.1199 155.262 48.6323 157.124 51.8253C158.375 53.9752 159.354 56.2848 160.456 58.5253C160.647 58.9138 160.775 59.3448 161.025 59.6801C162.882 62.1706 163.675 65.1668 164.969 67.9234C165.751 69.5891 166.352 71.3506 166.991 73.0801C167.214 73.6815 167.326 74.3254 167.48 74.948C167.816 76.321 168.14 77.6993 168.476 79.0777C168.646 79.7854 168.837 80.4932 169.013 81.201C169.056 81.366 169.034 81.5576 169.109 81.7012C170.429 84.1599 170.546 87.0017 171.621 89.5401C172.041 90.5299 172.563 91.4825 172.861 92.5043C173.579 94.9789 174.239 97.4694 174.835 99.9759C175.165 101.354 175.027 102.706 173.909 103.855C172.956 104.111 171.999 103.887 171.073 103.531C169.428 102.892 167.832 102.142 166.395 101.115C165.777 100.673 165.293 100.04 164.734 99.5076C164.309 99.1085 163.856 98.736 163.479 98.406C162.888 98.7413 162.457 99.0021 162.015 99.2362C161.158 99.6939 160.381 99.497 159.45 99.2362C158.003 98.8211 157.055 97.7728 155.853 97.065C155.283 96.7244 154.618 96.4849 153.963 96.3625C153.037 96.1922 152.079 96.2029 151.138 96.0805C150.637 96.0166 150.137 95.8676 149.658 95.7079C148.493 95.3195 147.333 94.9044 146.226 94.5159C145.646 96.1017 145.044 97.6078 144.549 99.1511C144.081 100.604 144.187 102.041 144.533 103.552C144.821 104.808 144.805 106.24 144.512 107.501C144.118 109.23 143.171 110.784 141.628 111.806C140.515 112.54 139.722 113.509 139.031 114.621C138.69 115.159 138.28 115.686 137.791 116.09C137.29 116.505 136.662 116.766 135.891 117.218C135.263 120.757 135.077 124.727 132.724 128.144C133.15 128.633 133.581 129.048 133.911 129.533C134.709 130.698 135.46 131.895 136.226 133.082C136.434 133.402 136.62 133.742 136.859 134.045C137.924 135.381 138.328 137.026 138.903 138.574C139.084 139.058 138.786 139.713 138.924 140.229C139.339 141.746 139.35 143.284 139.366 144.833C139.366 145.003 139.393 145.194 139.472 145.333C140.164 146.493 139.834 147.759 139.877 148.983C139.898 149.627 139.84 150.277 139.84 150.921C139.834 151.99 139.675 153.044 139.563 154.103C139.371 155.832 138.749 157.424 138.44 159.095C138.014 161.41 136.987 163.464 136.035 165.566C135.13 167.561 133.736 169.126 132.155 170.637C129.712 172.968 127.004 174.9 124.204 176.736C123.954 176.901 123.71 177.077 123.475 177.263C123.38 177.337 123.332 177.47 123.231 177.614C125.694 179.7 127.802 182.116 129.68 184.703C130.543 185.889 131.08 187.353 131.586 188.758C132.059 190.078 132.16 191.536 132.677 192.834C133.246 194.266 133.065 195.703 133.156 197.145C133.214 198.081 133.411 199.007 133.533 199.939C133.592 200.407 133.661 200.881 133.656 201.349C133.645 203.6 133.102 205.766 132.485 207.905C131.793 210.311 130.926 212.684 129.43 214.685C127.775 216.904 126.583 219.48 124.279 221.231C122.821 222.338 121.56 223.695 120.171 224.903C119.692 225.318 119.117 225.632 118.569 225.962C117.361 226.696 116.195 227.51 114.923 228.106C113.492 228.772 111.97 229.24 110.485 229.783C108.952 230.341 107.42 230.89 105.882 231.443C105.68 231.518 105.488 231.645 105.28 231.661C103.152 231.869 101.028 232.076 98.8998 232.257C98.3463 232.305 97.7875 232.263 97.2288 232.263C96.9414 232.912 96.654 233.487 96.4305 234.083C95.7067 236.062 94.4562 237.457 92.3434 237.999C91.0822 238.324 89.8422 238.734 88.4586 239.144C88.6821 240 87.8679 238.654 88.0169 239.479C88.2191 240.623 88.283 241.778 87.9158 242.922C87.7508 243.443 87.7189 244.008 87.6231 244.55C87.3623 246.067 87.1175 247.589 86.2661 248.92C85.7339 249.75 85.372 249.872 84.4354 249.516C84.0788 249.377 83.7383 249.202 83.536 249.111C83.2966 247.025 83.2753 245.024 82.7963 243.145C82.3067 241.219 81.6681 239.287 80.492 237.595C79.3958 236.014 79.1989 236.829 77.3895 236.089C76.4369 235.7 75.4684 235.339 74.5158 234.939C74.0421 234.743 73.5951 234.487 73.1108 234.237L73.1215 234.232ZM87.8679 71.7816C87.1441 71.5262 86.4257 71.2707 85.7552 71.0366C85.6062 70.068 85.2762 69.7594 84.2651 69.2166C82.2854 68.1469 80.0823 67.8649 77.9376 67.7105C75.4311 67.5296 72.8714 67.4444 70.3702 68.0511C70.1307 68.1096 69.8593 68.0511 69.6038 68.0298C68.4969 67.9074 67.4007 67.7158 66.2884 67.6626C64.6174 67.5828 62.9358 67.8116 61.286 67.3433C61.004 67.2635 60.6847 67.2795 60.3867 67.3008C58.2207 67.4551 55.975 66.9761 53.9155 68.0777C53.8782 68.099 53.8303 68.1043 53.7878 68.1043C52.1966 68.1522 50.7863 68.8706 49.4293 69.5465C46.4225 71.0579 43.3892 72.4043 40.0844 73.1386C38.2325 73.5484 36.4763 74.3999 35.1831 75.8261C33.6771 77.4865 32.5542 79.4342 31.6974 81.5203C31.5963 81.7651 31.5697 82.0365 31.4579 82.4942C31.7826 82.26 31.9262 82.1749 32.054 82.0631C33.4642 80.8019 34.8532 79.5194 36.2847 78.2794C37.5672 77.1672 39.0201 76.305 40.6804 75.9485C41.9097 75.6824 43.1284 75.874 44.1555 76.7574C43.5701 77.4066 43.5648 77.4652 42.9741 77.4066C41.9789 77.3109 41.1274 77.6727 40.244 78.0293C38.722 78.6413 37.6524 79.8387 36.4124 80.8232C35.0394 81.9141 34.0283 83.4414 32.3733 84.1971C31.7081 84.5005 31.0375 84.8038 30.4042 85.1657C28.9035 86.0225 27.3656 86.9484 26.5407 88.4864C25.2422 90.9131 24.2683 93.4888 24.5025 96.3412C24.5557 96.9798 24.5131 97.6397 24.6834 98.2464C25.157 99.9334 25.189 101.562 24.1991 103.068C23.22 104.558 23.2998 106.133 23.6297 107.772C23.965 109.443 24.5184 110.992 25.7265 112.248C25.9606 112.493 26.0777 112.838 26.2746 113.115C26.8706 113.951 27.3868 114.866 28.1053 115.579C29.6007 117.059 30.5373 118.751 30.7448 120.858C30.8513 121.923 32.0114 123.136 33.0225 123.359C32.6606 120.88 31.9262 118.464 32.2828 115.957C30.7608 115.217 29.3505 114.531 28.9621 112.769C29.0845 112.578 29.2175 112.37 29.3346 112.195C30.4362 112.312 31.3089 112.62 31.7719 113.69C32.022 114.265 32.5808 114.536 33.2407 114.589C34.5126 114.696 35.7472 114.462 36.8807 113.945C38.2431 113.323 39.5203 112.524 40.872 111.785C41.319 109.779 41.6277 107.698 42.8623 105.92C43.5275 106.101 44.0863 106.25 44.7515 106.426C44.5387 107.043 44.3205 107.554 44.1821 108.086C43.8096 109.534 43.4743 110.992 43.1124 112.439C42.9528 113.073 42.7772 113.701 42.6069 114.329C42.4206 114.632 42.378 114.978 42.4259 115.318C42.6228 116.723 42.8623 118.118 43.0433 119.523C43.0912 119.89 42.9954 120.278 42.9475 120.656C42.8783 121.199 42.6761 121.752 42.724 122.279C42.8464 123.642 43.0486 124.993 43.2668 126.345C43.4051 127.186 43.6074 128.021 43.8362 128.841C44.0757 129.698 44.4003 130.528 44.6717 131.374C44.975 132.311 45.2411 133.263 45.5711 134.189C46.2842 136.201 47.0505 138.196 47.7583 140.213C48.2372 141.586 48.6257 142.991 49.0887 144.37C50.0147 147.137 51.0897 149.861 51.8666 152.671C52.8032 156.045 54.0592 159.26 55.7408 162.32C56.6083 163.9 57.6034 165.38 58.8487 166.705C59.7853 167.7 60.525 168.876 61.451 169.882C63.1433 171.728 65.1762 173.176 67.3049 174.464C69.838 176.002 72.5042 177.332 74.9468 178.992C77.6928 180.855 80.6676 181.637 83.9086 181.648C85.835 181.653 87.7402 181.744 89.6773 181.382C91.5771 181.031 93.4716 180.695 95.2331 179.918C97.1064 179.094 98.9743 178.285 100.683 177.077C102.215 175.996 103.492 174.698 104.78 173.394C106.377 171.782 107.909 170.095 109.415 168.397C110.352 167.343 111.278 166.258 112.066 165.087C113.141 163.485 114.072 161.787 115.083 160.143C115.53 159.409 116.089 158.738 116.477 157.977C117.504 155.95 118.526 153.911 119.442 151.831C120.527 149.356 121.57 146.839 121.953 144.141C122.209 142.374 122.949 140.671 122.656 138.824C122.619 138.59 122.768 138.324 122.821 138.074C122.917 137.616 123.034 137.159 123.087 136.69C123.396 134.003 123.683 131.315 123.981 128.628C124.071 127.819 124.082 126.989 124.284 126.212C124.705 124.589 125.056 122.971 124.912 121.284C124.886 120.991 124.88 120.661 124.981 120.395C125.434 119.187 125.333 117.942 125.343 116.697C125.343 116.223 125.285 115.718 125.444 115.292C126.046 113.653 125.998 112.04 125.412 110.422C125.024 110.103 124.635 109.784 124.157 109.39C124.407 109.023 124.604 108.73 124.774 108.475C126.269 108.874 126.237 108.916 127.264 109.683C128.733 110.774 130.096 111.955 132.171 111.966C133.544 111.971 134.827 112.711 135.194 114.329C135.258 114.6 135.454 114.845 135.614 115.143C136.636 114.696 137.104 113.812 137.541 112.934C138.02 111.987 138.679 111.311 139.6 110.731C141.452 109.566 142.506 107.825 142.437 105.569C142.41 104.68 142.181 103.797 142.096 102.903C141.936 101.152 141.819 99.4065 142.617 97.7462C142.814 97.3417 142.931 96.9 143.075 96.4902H140.563C138.839 98.0708 136.513 98.8052 134.044 99.05C130.75 99.3746 127.61 98.6562 124.71 97.1076C122.464 95.9049 120.937 94.0582 120.405 91.4878C120.314 91.0461 120.128 90.6257 119.995 90.2266C119.186 90.1681 118.531 90.1255 117.717 90.0669C118.537 91.8763 118.766 93.7709 120.165 95.1438C120.426 95.3993 120.511 95.825 120.703 96.155C121.357 97.2619 121.895 98.4752 122.73 99.4225C123.651 100.471 124.412 101.578 125.061 102.796C125.317 103.275 125.647 103.792 126.083 104.084C127.44 104.989 128.872 105.782 130.266 106.633C130.596 106.836 130.963 107.027 131.192 107.32C131.947 108.272 132.905 108.358 133.975 108.076C134.475 107.943 134.981 107.841 135.465 107.666C136.322 107.352 137.147 107.022 137.354 105.942C137.418 105.617 137.775 105.351 138.03 105.016C138.759 105.266 139.382 105.479 140.021 105.697C139.744 106.724 139.222 107.442 138.53 108.049C135.944 110.3 131.383 110.284 129.111 107.852C128.882 107.607 128.6 107.389 128.313 107.213C127.248 106.57 126.189 105.899 125.082 105.33C124.157 104.851 123.571 104.1 123.012 103.27C121.82 101.493 120.564 99.7578 119.356 97.991C118.776 97.1448 118.148 96.3093 117.707 95.394C116.903 93.7336 116.211 92.0253 115.498 90.3224C115.147 89.4922 114.641 88.8962 113.753 88.5609C112.422 88.0553 111.193 87.3635 110.219 86.2673C109.682 85.6606 108.968 85.4424 108.128 85.4477C106.93 85.453 105.722 85.3945 104.535 85.2348C102.417 84.9528 100.48 84.1333 98.639 83.0636C96.4518 81.7864 94.2912 80.4613 92.0667 79.2426C89.7624 77.9814 87.3623 77.1672 84.611 78.3645C84.2172 78.2209 83.7223 78.0452 83.2221 77.859C83.5786 76.619 84.4301 76.3902 85.3667 76.305C88.6449 75.9964 91.5345 77.0501 94.238 78.8009C95.1693 79.4076 96.1485 79.9398 97.1117 80.4985C97.4842 80.7167 97.8674 80.9083 98.2346 81.1265C101.055 82.8401 103.945 84.1599 107.414 83.947C109.926 83.7927 112.326 83.3031 114.726 82.6325C115.711 82.3558 116.733 82.1696 117.749 82.1004C119.074 82.0099 120.415 82.1696 121.735 82.0472C124.002 81.8449 126.083 82.4889 128.132 83.2711C129.537 83.8086 130.771 84.6229 131.777 85.767C130.878 86.6824 129.782 86.7196 129.058 85.7617C127.759 84.0481 125.812 83.9843 124.002 83.6117C123.092 83.4255 122.118 83.5319 121.171 83.5426C119.926 83.5638 118.659 83.4947 117.446 83.7022C115.892 83.9683 114.381 84.4792 112.853 84.8889C112.534 84.9741 112.225 85.0805 111.831 85.2029C112.561 86.081 113.093 86.9218 114.37 86.8739C114.934 86.8526 115.525 87.3529 116.094 87.6296C116.669 87.9063 117.212 88.3587 117.813 88.4651C119.378 88.7419 120.969 89.0558 122.539 89.0133C124.646 88.9547 126.642 89.3432 128.637 89.8807C130.298 90.3277 131.357 91.573 132.698 92.8821C132.208 93.0524 131.894 93.2813 131.649 93.2227C131.165 93.111 130.692 92.8821 130.255 92.632C129.361 92.1318 128.547 91.4399 127.6 91.0887C126.014 90.5033 124.337 90.3703 122.571 90.6789C122.549 91.6794 122.879 92.6001 123.364 93.4409C124.96 96.1975 127.626 97.1821 130.569 97.528C132.224 97.7249 133.917 97.6663 135.492 96.916C135.641 96.8468 135.827 96.8521 135.992 96.8149C137.2 96.5488 138.264 96.0911 138.85 94.8778C138.983 94.5957 139.297 94.3988 139.536 94.1593C140.063 94.3349 140.51 94.4786 140.952 94.633C142.617 95.2077 143.911 94.1487 143.591 92.4617C143.527 92.1264 143.41 91.8018 143.293 91.4825C142.602 89.5774 141.101 88.4704 139.398 87.5658C138.876 87.289 138.344 87.0389 137.844 86.7941C137.977 85.9959 138.435 85.8522 138.988 86.0225C139.643 86.2247 140.276 86.5014 140.909 86.7675C141.356 86.9538 141.793 87.1773 142.197 87.3689C142.357 86.3897 142.516 85.5542 142.623 84.7133C142.671 84.3355 142.719 83.9098 142.591 83.5692C141.66 81.0999 140.297 79.0404 137.466 78.455C136.088 78.1676 134.64 78.0878 133.427 77.2576C131.809 76.156 130.032 76.4966 128.334 76.8266C127.254 77.0341 126.445 76.7946 125.54 76.2731C126.142 75.2514 127.11 75.1981 128.036 75.113C128.723 75.0545 129.446 75.2088 130.096 75.0438C130.862 74.8469 131.543 74.9693 132.224 75.2247C133.022 75.5228 133.799 75.89 134.582 76.2412C135.449 76.6297 136.364 76.7308 137.482 76.9011C136.764 75.4217 135.944 74.2615 134.518 73.8358C132.799 73.3196 131.011 73.0322 129.265 72.5958C126.291 71.8508 123.47 72.4841 120.692 73.5165C120.495 73.591 120.272 73.6921 120.155 73.8517C119.596 74.6127 118.83 74.9001 118.058 74.8363C117.409 75.4216 116.898 75.9432 116.318 76.3796C115.993 76.6244 115.562 76.8159 115.158 76.8585C113.284 77.0714 111.411 77.247 109.533 77.3907C107.697 77.529 105.855 77.6568 104.014 77.6993C103.162 77.7206 102.311 77.5344 101.459 77.4279C99.9907 77.2417 98.7242 76.8213 98.1707 75.1981C97.9685 74.5968 97.4523 74.0433 96.9574 73.6176C96.5529 73.2664 95.9781 73.0535 95.446 72.9311C94.536 72.7182 93.5621 72.4043 92.6734 72.5266C90.9066 72.7661 89.0493 72.8726 87.6178 74.1019C87.0324 73.9369 86.5428 73.8039 86.1224 73.6868C85.851 73.0961 86.0745 72.7608 86.4789 72.5107C86.91 72.2446 87.357 71.9998 87.7987 71.7444C88.7779 71.5209 89.7571 71.2973 90.7363 71.0685C90.7469 71.01 90.7576 70.9567 90.7682 70.8982C90.0551 70.712 89.342 70.5257 88.6981 70.3607C88.3522 70.9248 88.0914 71.3559 87.8306 71.7816H87.8679ZM92.4818 216.729C93.5887 216.851 94.3497 216.989 95.116 217.011C96.7072 217.053 98.3037 217.011 99.8949 217.037C100.534 217.048 101.183 217.282 101.805 217.213C103.46 217.032 105.121 216.776 106.691 216.191C108.867 215.388 110.985 214.499 111.209 212.253C110.847 209.22 110.549 206.676 110.23 204.01C110.081 204.372 109.905 204.638 109.862 204.92C109.719 205.888 109.623 206.867 109.501 207.841C109.373 208.847 109.24 209.853 108.426 210.657C107.798 210.422 107.25 210.22 106.59 209.981C106.696 209.518 106.771 209.156 106.866 208.799C106.967 208.427 107.18 208.07 107.196 207.698C107.329 204.867 108.277 202.232 109.07 199.555C110.059 196.224 111.017 192.887 111.911 189.529C112.465 187.459 112.875 185.352 113.338 183.26C113.54 182.34 113.742 181.414 113.902 180.483C114.173 178.881 114.439 177.274 114.663 175.666C114.891 174.011 115.072 172.351 115.275 170.691C115.37 169.924 115.487 169.163 115.562 168.402C115.727 166.705 115.871 165.002 116.046 162.995C115.573 163.698 115.269 164.156 114.961 164.608C114.285 165.603 113.699 166.678 112.917 167.583C111.188 169.6 109.394 171.569 107.558 173.495C105.781 175.363 103.993 177.236 102.077 178.955C100.353 180.499 98.5539 182.026 96.3028 182.76C94.7648 183.26 93.1683 183.585 91.5931 183.963C90.55 184.213 89.5176 184.399 88.416 184.213C87.4049 184.043 86.3672 184.043 85.3401 183.968C84.9995 183.947 84.643 183.979 84.3077 183.91C81.9023 183.447 79.4649 183.101 77.1819 182.169C76.2772 181.802 75.4151 181.318 74.5849 180.797C73.3876 180.046 72.2647 179.173 71.062 178.434C68.3905 176.795 65.5753 175.384 63.0688 173.485C62.5898 173.123 62.1641 172.697 61.6745 172.362C60.0088 171.217 58.4762 169.946 57.2894 168.285C57.1245 168.056 56.9063 167.87 56.6189 167.567C56.3262 168.498 56.1293 169.328 55.8153 170.105C55.2619 171.452 54.602 172.755 54.0432 174.102C53.0214 176.56 52.0422 179.03 51.0577 181.504C50.9034 181.898 50.9034 182.356 50.7118 182.728C49.6049 184.857 48.482 186.975 47.3219 189.077C46.9281 189.79 46.8483 190.429 47.3432 191.115C47.8381 191.807 48.3011 192.526 48.7375 193.175C49.9561 193.489 51.0897 193.744 52.1966 194.079C54.6924 194.84 57.2735 195.314 59.5458 196.74C62.8932 198.837 65.9744 201.147 67.9754 204.68C68.6459 205.867 69.5772 206.899 70.9875 207.373C71.9986 207.714 72.9991 208.118 73.9623 208.586C74.3508 208.773 74.6488 209.172 74.9415 209.518C75.5535 210.236 76.0005 211.183 76.7509 211.678C78.4645 212.812 80.2419 213.919 82.1364 214.68C84.2757 215.537 86.5854 215.957 88.7939 216.659C90.1296 217.085 91.4068 217.053 92.4871 216.723L92.4818 216.729ZM95.116 230.719C95.4779 230.719 95.8717 230.671 96.2496 230.725C98.8465 231.118 101.326 229.889 103.918 230.192C104.041 230.208 104.174 230.15 104.291 230.107C106.345 229.378 108.388 228.607 110.453 227.92C111.464 227.585 112.412 227.191 113.369 226.712C115.695 225.563 117.829 224.179 119.729 222.439C121.214 221.082 123.002 220.06 124.188 218.373C124.827 217.463 125.412 216.505 126.104 215.632C127.802 213.482 129.095 211.125 129.915 208.517C130.159 207.746 130.34 206.953 130.537 206.165C130.851 204.925 131.171 203.68 131.463 202.435C131.511 202.238 131.431 202.014 131.415 201.801C131.261 199.971 131.155 198.14 130.947 196.315C130.761 194.633 130.814 192.887 129.899 191.349C129.84 191.248 129.851 191.099 129.829 190.977C129.478 188.752 128.802 186.661 127.339 184.884C126.658 184.059 126.062 183.165 125.396 182.324C124.274 180.908 122.954 179.706 121.368 178.689C119.968 179.195 118.563 179.679 117.169 180.216C116.493 180.477 116.073 180.956 115.966 181.749C115.849 182.638 115.578 183.505 115.381 184.383C115.003 186.044 114.631 187.709 114.306 189.168C115.152 189.897 115.892 190.418 116.483 191.073C117.733 192.472 119.367 193.574 120.064 195.41C120.532 196.634 121.107 197.868 121.277 199.151C121.623 201.769 120.868 204.34 120.602 206.937C120.538 207.565 120.389 208.225 120.107 208.778C118.931 211.114 117.84 213.488 115.871 215.345C114.184 216.931 112.624 218.586 110.565 219.773C108.064 221.215 105.547 222.566 102.758 223.349C100.491 223.982 98.2186 224.589 95.8238 224.498C94.504 224.45 93.163 224.562 91.9017 223.769C92.0827 222.998 91.6516 222.46 90.9758 222.215C90.2573 221.96 89.4697 221.72 88.73 221.752C86.6865 221.843 84.8239 222.508 83.2167 223.913C83.9352 224.392 84.2225 225.025 83.8873 225.818C83.552 226.622 82.5143 227.143 81.6362 226.946C81.0614 226.813 80.5027 226.595 80.0024 226.435C78.8157 227.441 77.5811 228.33 76.5433 229.405C75.4205 230.565 74.9628 232.007 75.4843 233.566C77.3256 234.7 81.2796 236.19 82.1897 236.126C82.312 235.759 82.3493 235.339 82.5728 235.056C82.8176 234.743 83.2221 234.365 83.5626 234.354C84.5206 234.322 85.3986 234.663 86.1543 235.312C86.8036 235.871 86.7557 236.52 86.3299 237.43C87.1974 237.345 87.836 237.345 88.4373 237.212C89.3899 237.004 90.3159 236.658 91.2738 236.467C93.2268 236.078 94.3923 234.045 94.3657 232.406C94.355 231.736 94.4402 231.23 95.1107 230.714L95.116 230.719ZM37.3491 45.5776C37.4927 45.2477 37.7056 44.9762 37.7056 44.7048C37.7109 43.3318 38.3282 42.1238 38.738 40.8679C39.499 38.5423 40.3984 36.2806 41.9683 34.3382C43.7723 32.1084 45.9063 30.8259 48.9344 31.6135C48.9663 31.6135 49.0515 31.6028 49.1313 31.5762C51.2759 30.9908 53.2556 29.8839 55.4801 29.5646C56.0282 29.4848 56.5763 29.3837 57.1245 29.3624C58.3697 29.3145 59.6097 29.3624 60.7539 28.6812C61.4829 28.2448 62.2652 27.8936 63.0528 27.5637C66.3257 26.1907 69.6145 24.8443 72.8926 23.4713C73.6004 23.1733 74.271 22.7795 74.9734 22.4708C75.6759 22.1621 76.4103 21.928 77.1074 21.614C77.7673 21.316 78.3953 20.9541 79.1137 20.5869C80.0663 18.7509 81.6096 17.0852 81.7958 14.7384C81.5457 14.3925 81.2743 14.0093 81.0189 13.6581C80.1568 13.4133 79.4543 13.7911 78.7465 14.0891C76.8892 14.8714 75.0692 15.7601 73.18 16.4626C70.3276 17.527 67.5231 18.6711 64.8409 20.108C63.8937 20.6135 62.9198 21.0659 61.9566 21.5448C60.7698 22.1355 59.5937 22.7582 58.391 23.3223C57.7045 23.6416 56.9967 23.9183 56.273 24.1365C55.7142 24.3068 55.049 24.227 54.5434 24.4824C52.1008 25.7277 49.5144 26.7015 47.2793 28.346C46.9387 28.5961 46.513 28.7291 46.1298 28.9207C45.1773 29.405 44.1981 29.8573 43.2774 30.4001C42.0268 31.1292 40.8135 31.9275 39.6214 32.6725C38.9988 32.4596 38.4932 32.284 37.7322 32.0232C38.3016 31.4964 38.6316 31.1132 39.0307 30.8365C40.0152 30.1447 40.9784 29.3997 42.0428 28.8462C43.9852 27.8404 45.9223 26.8665 47.7796 25.6904C49.6475 24.509 51.7655 23.7161 53.7771 22.7582C55.0437 22.1568 56.3049 21.5342 57.6034 21.002C58.2633 20.7306 59.0243 20.7093 59.6789 20.4379C61.1796 19.8206 62.6643 19.1447 64.1278 18.4423C65.091 17.9793 65.9851 17.3833 66.9483 16.915C67.9062 16.452 68.9067 16.0582 69.9019 15.675C71.211 15.1694 72.5627 14.7597 73.8506 14.2062C75.8941 13.3281 77.9323 12.4341 80.2206 11.8381C80.6251 11.2846 81.0402 10.5715 81.5989 9.98611C83.1954 8.3151 84.0682 6.28221 84.6642 4.11096C84.8292 3.51493 84.9569 2.87101 84.5525 2.18451C82.328 2.9189 80.1355 3.61072 78.0121 4.54734C75.8941 5.48396 73.9889 6.85696 71.7166 7.46895C70.6522 7.75632 69.6358 8.22463 68.614 8.65037C67.3528 9.17721 66.1235 9.78921 64.8462 10.2841C63.1646 10.9387 61.4563 11.5081 59.7587 12.1201C59.2372 12.3117 58.6997 12.4767 58.2048 12.7321C55.959 13.8976 53.7239 15.0896 51.4835 16.2657C50.4936 16.7819 49.4506 17.213 48.514 17.809C45.8691 19.4853 43.2668 21.2362 40.6379 22.9391C37.5672 24.9188 34.4753 26.8612 31.4154 28.8515C30.4841 29.4582 29.6273 30.1819 28.7226 30.8312C26.993 32.0818 25.2528 33.3217 23.353 34.6841C23.8586 34.9023 24.114 35.0406 24.3854 35.1205C25.9287 35.5888 27.2857 36.403 28.5257 37.4035C29.8242 38.4519 30.0583 39.745 29.3399 41.2617C29.1377 41.6821 29.0046 42.1345 28.8556 42.5336C29.1643 43.3106 29.6113 44.0077 29.6805 44.7421C29.7497 45.4978 29.4517 46.2907 29.276 47.2539C31.8517 45.8809 34.5286 45.6947 37.3491 45.5829V45.5776ZM118.021 49.0633C117.834 49.7019 117.739 50.2447 117.52 50.7396C117.212 51.4368 116.951 52.2457 116.424 52.7406C115.621 53.4963 114.668 54.1508 113.673 54.6192C110.831 55.9602 107.76 56.6627 104.738 57.4503C102.923 57.9186 101.028 58.0783 99.1765 58.3976C97.6119 58.669 96.058 58.9883 94.4987 59.2543C93.7803 59.3767 93.0565 59.4672 92.3275 59.5045C90.997 59.5737 89.6666 59.5896 88.3362 59.6375C86.7982 59.6961 85.2549 59.8238 83.717 59.8291C82.2588 59.8291 80.8007 59.712 79.3425 59.6482C78.1398 59.5949 76.8892 59.728 75.7451 59.4513C74.2656 59.0894 73.0842 59.6003 71.988 60.34C70.1786 61.564 68.449 62.905 66.7248 64.2408C66.1022 64.7251 65.5753 65.3317 64.9048 65.9756C66.2299 66.0874 67.3315 66.1938 68.4384 66.2737C68.9812 66.3109 69.5293 66.3322 70.0722 66.3109C70.5884 66.2896 71.0992 66.1672 71.6101 66.1619C73.5845 66.1353 75.5801 65.9756 77.5385 66.1726C79.4809 66.3695 81.4606 66.5397 83.3178 67.3433C85.1485 68.1363 86.9472 69.158 89.0653 68.9718C89.1078 68.9718 89.1504 68.9984 89.1877 68.9984C89.7784 68.9984 90.3691 69.0143 90.9598 68.9984C91.343 68.9877 91.7314 68.8813 92.1146 68.9079C94.3763 69.0356 96.5369 68.3704 98.7348 68.0564C99.1339 67.9979 99.5597 67.7797 99.879 67.5136C102.215 65.5606 104.53 63.5862 106.84 61.6065C108.149 60.4783 109.522 59.6215 111.315 59.3076C113.103 58.9989 114.732 59.0734 116.291 59.9621C117.1 60.4198 117.834 61.0052 118.744 61.6331C119.686 61.069 120.857 60.5582 121.794 59.7759C123.731 58.1634 125.657 56.5296 127.174 54.4542C128.073 53.2195 128.77 51.9157 129.335 50.5215C129.627 49.7977 129.76 49.0739 129.585 48.2597C129.457 47.6477 129.601 46.9772 129.611 46.3333C129.617 45.9927 129.686 45.6361 129.601 45.3168C129.26 44.0343 128.888 42.7571 128.494 41.4905C128.382 41.1233 128.212 40.7668 127.999 40.4475C126.903 38.8084 125.716 37.3077 124.141 36.0198C121.645 33.9816 118.792 33.3537 115.77 33.1781C114.551 33.1089 113.311 33.4069 112.082 33.5772C111.321 33.6836 110.538 33.7634 109.82 34.0189C107.963 34.6734 106.148 35.4611 104.291 36.1209C102.029 36.9245 100.539 38.6381 99.086 40.4049C98.8891 40.6391 98.8412 40.9956 98.655 41.4746C99.8311 41.5757 100.853 41.6502 101.869 41.7513C102.721 41.8364 103.588 41.8631 104.413 42.06C105.536 42.3314 106.701 42.6081 107.712 43.1349C108.787 43.6937 109.719 43.6033 110.788 43.2573C113.125 42.5017 115.301 43.0125 117.366 44.1993C117.6 45.9342 117.818 47.5626 118.021 49.058V49.0633ZM141.681 41.134C142.346 40.671 143.219 40.357 143.607 39.7344C144.251 38.6966 144.805 37.5472 144.847 36.2593C144.858 35.9666 144.837 35.6473 144.741 35.3759C143.873 33.0024 142.602 30.8259 140.84 29.0484C138.451 26.643 135.907 24.3866 133.342 22.1675C130.638 19.8259 127.679 17.8516 124.337 16.4945C123.071 15.9783 121.889 15.228 120.453 15.2227C120.245 15.2227 120.043 15.1056 119.835 15.0524C117.93 14.5574 116.03 14.0519 114.12 13.5836C113.54 13.4399 112.906 13.2856 112.337 13.376C110.943 13.5889 109.548 13.5676 108.154 13.6421C105.626 13.7698 103.136 14.3978 100.768 15.3078C99.3308 15.8613 97.8514 15.973 96.372 16.1486C95.6589 16.2338 95.0735 16.4094 94.5041 16.8617C93.0619 18.0006 92.0933 19.5332 91.0077 20.9648C90.7203 21.3426 90.5394 21.8269 90.0285 21.8428C89.0014 23.9768 88.5863 26.1108 89.8689 28.3034C90.6618 28.6014 91.5026 28.9101 92.3168 29.2134C92.4286 29.1229 92.5191 29.0803 92.551 29.0112C92.6468 28.8196 92.7372 28.6227 92.7905 28.4205C93.2056 26.7441 94.5147 25.7436 95.7812 24.8496C97.564 23.599 99.4958 22.556 101.406 21.4916C102.487 20.8903 103.636 20.3262 104.924 20.4805C105.728 20.5763 106.499 20.9062 107.297 21.0659C108.458 21.3 109.107 22.1036 109.708 23.0189C110.187 23.7533 110.134 24.4718 109.836 25.2274C109.788 25.3445 109.793 25.4829 109.799 25.6106C109.884 27.5158 109.564 29.3624 109.085 31.1984C108.995 31.5496 109.075 31.9434 109.075 32.3532C109.266 32.3319 109.389 32.3372 109.501 32.3106C110.453 32.0924 111.4 31.7412 112.364 31.6773C115.301 31.4804 118.164 31.9062 121.022 32.6672C123.768 33.4016 125.716 35.2429 127.781 36.9458C128.366 37.4301 128.829 38.09 129.239 38.7392C130.106 40.1122 130.979 41.4959 131.256 43.1509C131.346 43.6884 131.532 44.2099 131.735 44.9709C132.091 44.5824 132.379 44.3536 132.565 44.0556C133.012 43.3425 133.134 42.5283 133.081 41.7034C133.022 40.8839 133.294 40.1974 133.821 39.5055C134.454 39.7024 135.055 39.9313 135.673 40.075C136.066 40.1654 136.567 40.2878 136.891 40.1335C138.254 39.4949 139.472 39.7503 140.664 40.5273C140.915 40.6923 141.181 40.836 141.676 41.1287L141.681 41.134ZM133.571 51.9211C135.641 52.2616 137.626 52.5703 139.6 52.9109C141.484 53.2408 143.341 53.8635 144.863 54.9331C147.375 56.7053 149.317 59.0787 150.462 61.9897C150.946 63.219 151.297 64.5015 151.664 65.7681C151.957 66.7899 152.362 67.8223 152.409 68.8653C152.553 72.1222 152.665 75.4004 151.739 78.5827C151.308 80.0622 151.196 81.4777 151.845 82.9412C152.292 83.9523 152.601 85.0273 152.926 86.0863C153.5 87.9649 154.011 89.8647 154.602 91.738C154.857 92.5469 155.241 93.3185 155.602 94.1859C157.321 95.2556 158.79 96.9479 161.142 97.3577C161.483 97.1608 161.919 96.9053 162.499 96.5701C162.35 95.8144 162.26 95.0534 162.042 94.3296C161.462 92.3979 160.759 90.5033 160.227 88.5556C159.551 86.081 158.843 83.6171 157.928 81.2223C156.688 77.9761 155.437 74.7298 154.32 71.8295C154.219 70.7758 154.309 70.0095 154.059 69.3709C153.064 66.8165 152.351 64.1397 150.914 61.7662C150.696 61.4043 150.605 60.9679 150.446 60.5688C150.031 59.5364 149.653 58.488 149.19 57.4769C148.604 56.1944 147.95 54.9385 147.332 53.6879C147.577 53.1238 147.795 52.6235 148.003 52.1392C148.881 52.3415 149.094 53.0067 149.36 53.5601C150.765 56.4977 152.133 59.4566 153.511 62.4048C153.548 62.4846 153.559 62.5698 153.591 62.6496C154.123 64.0971 154.66 65.5393 155.187 66.9921C155.831 68.7589 156.496 70.515 157.087 72.2978C157.311 72.9737 157.273 73.7347 157.476 74.4212C157.758 75.4057 158.136 76.3583 158.492 77.3215C159.099 78.9659 159.743 80.5997 160.328 82.2494C160.701 83.2978 161.025 84.3621 161.329 85.4318C161.712 86.7835 162.02 88.1618 162.404 89.5135C163.026 91.6901 163.686 93.856 164.42 96.3253C164.734 96.6073 165.362 97.0703 165.868 97.645C167.422 99.4118 169.396 100.503 171.557 101.306C172.1 101.509 172.696 101.674 173.34 101.354C172.877 99.0074 172.344 96.7244 171.594 94.484C170.87 92.3287 169.732 90.3277 169.327 88.0554C169.141 87.0123 168.816 85.9852 168.502 84.9688C167.954 83.2073 167.342 81.4671 166.799 79.7056C166.496 78.7211 166.193 77.7206 166.049 76.7095C165.831 75.1556 165.309 73.7081 164.713 72.2765C163.872 70.2596 163 68.248 162.153 66.2311C161.802 65.4009 161.541 64.5282 161.142 63.7246C160.552 62.5325 159.849 61.3937 159.237 60.2069C158.018 57.8388 156.832 55.4547 155.624 53.0812C154.591 51.0483 153.554 49.0207 152.511 46.9985C152.095 46.1949 151.654 45.4073 151.212 44.6197C150.792 43.8747 150.366 43.1349 149.924 42.4005C148.94 40.7615 147.95 39.1277 146.87 37.3449C146.635 37.7228 146.502 37.8877 146.428 38.074C145.848 39.58 144.932 40.8679 143.826 42.028C142.57 43.3425 141.25 43.5075 139.717 42.5974C139.35 42.3793 138.956 42.209 138.61 42.0333C137.541 42.2994 136.519 42.5549 135.412 42.8316C135.093 44.8964 133.709 46.312 131.889 47.4295C131.942 48.2331 131.995 48.9994 132.027 49.4944C132.661 50.4895 133.161 51.2718 133.581 51.9317L133.571 51.9211ZM113.652 48.2118C113.667 48.1054 113.683 48.0043 113.699 47.8979C113.566 47.8074 113.439 47.6956 113.29 47.6211C111.145 46.5302 109.043 45.3541 106.845 44.3802C105.286 43.6884 103.647 43.1828 101.869 43.1935C100.683 43.2041 99.4745 43.0019 98.3144 42.7358C97.1489 42.4697 96.0314 41.9961 94.8819 41.6342C94.3923 41.4799 93.8761 41.2404 93.3918 41.2777C91.9443 41.4001 90.4915 41.5597 89.0706 41.8471C87.0164 42.2622 85.0048 42.9274 82.94 43.268C80.1089 43.7363 77.5704 44.9975 74.9255 45.9554C72.5574 46.8122 70.3116 48.0096 68.018 49.0686C64.9048 50.5002 61.9246 52.1712 59.0562 54.0444C58.0132 54.7256 57.0766 55.5664 56.0122 56.205C53.9527 57.4397 51.8028 58.5359 49.8976 60.0154C49.0887 60.6433 48.3171 61.3192 47.5773 62.027C46.2735 63.2722 45.0229 64.5814 43.7138 65.816C42.1545 67.2901 41.4308 69.2804 40.1163 71.2548C40.8188 71.1377 41.2552 71.143 41.6277 70.9887C43.453 70.233 45.2837 69.488 47.0718 68.6418C48.9344 67.7637 50.8076 67.0027 52.8139 66.444C55.8366 65.5978 58.8434 65.8107 61.4137 65.8745C62.5207 64.9592 63.4041 64.2035 64.3088 63.4798C67.2995 61.0957 70.3648 58.818 73.9517 57.3758C75.1437 56.8968 76.3464 56.4285 77.5545 55.9975C79.1616 55.4174 80.7794 54.8693 82.3919 54.3211C84.5365 53.5974 86.6705 52.8257 88.8418 52.1818C91.0982 51.5166 93.4078 51.043 95.6642 50.3724C98.011 49.67 100.438 49.4305 102.832 49.0261C103.886 48.8451 104.998 48.9196 106.02 48.6482C107.936 48.1427 109.852 48.2863 111.778 48.3183C112.401 48.3289 113.029 48.2491 113.652 48.2118ZM50.0466 57.4503C47.8221 57.2161 45.736 56.998 43.6499 56.7851C43.4796 56.7691 43.304 56.7851 43.1337 56.7851C41.0689 56.7851 39.0041 56.7585 36.9393 56.7851C36.3486 56.7957 35.7472 56.9075 35.1725 57.0458C33.6771 57.4024 32.2083 57.9133 30.7289 58.2539C27.7221 58.9457 25.1358 60.3879 22.6452 62.0695C21.6873 62.7135 20.8944 63.6022 19.9258 64.2248C18.0313 65.4435 16.7275 67.1837 15.4556 68.9558C15.0405 69.5412 14.8809 70.3022 14.4924 70.9089C13.7101 72.1222 13.2844 73.4473 12.9704 74.8416C12.3158 77.7366 12.3105 80.6103 13.0449 83.484C13.2897 84.4472 13.6515 85.3413 14.2635 86.1608C14.7052 86.7569 14.9021 87.5338 15.2055 88.231C15.2853 88.4225 15.3066 88.6461 15.4184 88.811C16.0729 89.7636 16.6956 90.7481 17.4353 91.6315C18.6859 93.1216 20.1866 94.2871 22.129 94.8299C22.4217 93.6165 22.6292 92.4298 23.0018 91.3069C23.8586 88.7418 24.6675 86.1236 27.3762 84.7719C28.4033 84.2557 28.9674 83.3989 28.9088 82.1962C28.0627 81.8024 27.2219 81.4724 26.4396 81.036C25.2262 80.3602 24.4812 79.3863 24.6568 77.8909C24.6994 77.5556 24.6568 77.2044 24.6408 76.8585C24.5929 75.7835 24.8324 74.7618 25.5189 73.9582C26.3225 73.0216 27.1686 72.0637 28.1798 71.3825C30.0051 70.1585 32.054 69.3443 34.1986 68.8068C35.7419 68.4236 37.3171 68.3757 38.6156 68.4715C42.2503 64.4377 45.5977 60.4358 50.0519 57.429L50.0466 57.4503ZM27.7115 39.5002C27.1527 38.8457 26.7429 38.0101 26.0883 37.6908C25.0347 37.18 23.8798 36.7223 22.6399 36.8128C22.2674 36.8394 21.8736 36.9192 21.5383 37.0735C19.3192 38.0953 17.3554 39.5534 15.8122 41.3947C13.5824 44.0609 11.5495 46.8867 9.53256 49.7232C7.59014 52.4585 5.98831 55.3961 4.99847 58.6264C4.53549 60.1324 3.78513 61.5746 3.90753 63.2243C3.92349 63.4691 3.77448 63.7193 3.73191 63.9747C3.60419 64.7304 3.48179 65.4914 3.36471 66.2524C3.2636 66.9282 3.13056 67.6041 3.09863 68.2799C3.03477 69.5572 2.88044 70.8556 3.05605 72.1062C3.18377 73.0216 3.64144 73.8837 3.40729 74.8575C3.37003 75.0172 3.40729 75.2035 3.44986 75.3684C4.05653 77.9654 4.81221 80.5252 5.99895 82.9146C6.53112 83.9896 6.86639 85.1178 6.91428 86.2247C7.01007 88.3214 8.28196 89.3592 9.89975 90.1947C11.177 90.8546 12.4382 90.8279 13.7207 89.7955C12.6564 88.7419 11.9805 87.5072 11.8102 86.0278C11.7943 85.8681 11.6453 85.7244 11.5974 85.5648C11.161 84.1812 10.5224 82.8188 10.3627 81.4032C10.1605 79.6258 10.2137 77.7845 10.4 75.9964C10.7033 73.0322 12.1029 70.4299 13.6037 67.9287C14.8702 65.816 16.653 64.1184 18.6114 62.607C18.6433 62.3409 18.7551 62.0642 18.6912 61.8354C18.3879 60.7338 18.5315 59.6748 18.638 58.5466C18.9307 55.4706 20.5431 53.1238 22.5973 51.1068C23.9118 49.8083 25.652 48.9409 27.1953 47.8819C26.3864 46.8388 27.4454 45.8384 27.3443 44.609C26.0192 43.0498 26.7003 41.3735 27.7168 39.5109L27.7115 39.5002ZM116.685 178.066C116.791 178.162 116.898 178.258 117.009 178.349C118.063 177.902 119.175 177.556 120.16 176.986C121.634 176.135 123.002 175.092 124.449 174.187C126.498 172.904 128.307 171.34 130.138 169.77C132.895 167.407 134.497 164.347 135.582 161.021C136.375 158.594 136.982 156.099 137.37 153.533C137.663 151.607 137.493 149.697 137.722 147.791C137.796 147.158 137.445 146.477 137.312 145.817C137.216 145.359 137.125 144.896 137.094 144.428C137.051 143.832 137.094 143.231 137.04 142.64C136.961 141.746 136.753 140.863 136.742 139.968C136.726 138.686 136.418 137.499 135.827 136.387C135.188 135.174 134.518 133.976 133.778 132.827C133.171 131.88 132.442 131.012 131.596 129.873C131.24 130.9 130.931 131.603 130.745 132.342C130.165 134.625 129.617 136.909 128.51 139.027C127.93 140.128 127.126 140.863 126.003 141.299C125.572 141.464 125.125 141.602 124.731 141.735C124.407 143.475 124.093 145.152 123.784 146.775C125.253 148.206 125.966 150.037 125.971 151.9C125.971 153.108 125.806 154.279 125.519 155.449C125.141 156.982 124.497 158.35 123.481 159.558C122.007 161.314 120.304 162.804 118.292 164.108C118.053 166.247 117.813 168.418 117.574 170.584C117.387 172.282 117.217 173.985 117.025 175.688C116.935 176.481 116.807 177.268 116.696 178.061L116.685 178.066ZM53.1066 170.653C52.1753 170.148 51.3664 169.664 50.5202 169.264C47.7636 167.966 46.2469 165.635 45.2145 162.91C45.1134 162.639 45.1081 162.314 45.1187 162.022C45.1453 160.915 45.3635 159.797 44.7568 158.749C44.6398 158.547 44.7356 158.238 44.6877 157.988C44.4801 156.961 45.0123 156.061 45.14 155.093C45.3848 153.278 45.9968 151.607 47.0132 150.09C47.3911 149.532 47.8913 149.058 48.3437 148.536C47.6997 146.855 47.0771 145.226 46.4704 143.635C46.3534 143.561 46.2895 143.497 46.2097 143.475C43.8096 142.848 42.1173 141.416 41.0689 139.16C40.7549 138.484 40.2068 137.92 39.7332 137.27C39.4298 137.467 39.2436 137.563 39.0839 137.701C37.5992 138.973 36.8967 140.767 36.1144 142.459C34.9383 144.987 34.486 147.759 34.0975 150.495C33.8474 152.256 33.9911 154.087 34.0283 155.88C34.0443 156.726 34.3583 157.578 34.305 158.413C34.2146 159.866 34.7574 161.191 34.9543 162.58C35.082 163.464 35.3055 164.363 35.6621 165.172C36.3113 166.651 37.0723 168.094 37.8386 169.52C38.2378 170.265 38.754 170.941 39.2223 171.649C39.9514 172.75 40.6272 173.894 41.4308 174.943C43.1497 177.188 45.3955 178.833 47.7955 180.275C48.1095 180.461 48.5086 180.514 49.0089 180.669C50.3872 177.311 51.7283 174.038 53.1066 170.669V170.653ZM51.1269 45.2264C51.8932 44.641 52.3882 43.9545 52.5478 42.9114C52.7713 41.432 53.2556 39.894 54.4583 38.9521C56.1612 37.6163 58.1196 36.7649 60.4079 37.0629C61.1264 37.1587 61.9193 37.2172 62.5898 37.015C63.5052 36.7329 64.2875 37.015 65.0964 37.2438C65.7084 37.4194 66.3257 37.6376 66.8898 37.941C68.779 38.9574 70.4393 40.1974 71.062 42.4112C71.3174 43.3106 71.6474 44.1886 71.9773 45.1838C74.6116 44.1673 77.2245 43.1562 79.9652 42.0972C79.0871 40.3836 78.5709 38.5583 77.4906 36.9884C77.4161 36.882 77.3256 36.7862 77.2298 36.701C76.1655 35.7644 75.1384 34.7799 74.0208 33.9124C72.8607 33.0131 71.5409 32.3851 70.0881 32.0552C67.869 31.5549 65.6711 30.9908 63.4466 30.5278C62.8346 30.4001 62.1694 30.5278 61.5308 30.5757C60.4186 30.6502 59.3117 30.7567 58.1994 30.8418C57.944 30.8631 57.6726 30.8099 57.4278 30.8684C54.6712 31.5177 51.9252 32.2042 49.4293 33.822C48.796 33.5878 48.1148 33.343 47.3166 33.0503C46.8483 33.194 46.1671 33.2259 45.7307 33.5719C44.9378 34.2051 44.2726 35.0087 43.5808 35.7644C42.5164 36.9245 42.1652 38.4731 41.4521 39.8195C41.3403 40.0324 41.3244 40.2932 41.2711 40.5167C41.649 40.8306 41.9736 41.1021 42.261 41.3362C42.4206 42.2409 42.4579 43.103 41.7873 43.699C41.351 44.0875 40.7177 44.2578 40.0631 44.5824C39.6906 46.163 39.2649 47.8925 38.8923 49.6327C38.8019 50.0425 38.8338 50.4948 38.8977 50.9153C39.0999 52.1925 39.5895 52.549 40.8614 52.2084C43.5595 51.49 45.6349 49.7658 47.6518 47.9724C47.0239 46.6845 47.109 46.0619 47.8328 45.2157C48.945 43.9119 50.0147 44.9922 51.1322 45.2264H51.1269ZM134.348 53.6825C134.172 54.981 134.087 56.1731 133.831 57.3226C133.571 58.488 133.134 59.6109 132.767 60.7923C133.507 61.399 134.209 62.1068 135.034 62.6283C138.344 64.7251 138.94 69.3283 137.37 72.3723C137.237 72.6278 137.115 72.8885 137.008 73.112C137.684 73.889 138.355 74.5649 138.908 75.3259C139.44 76.0549 140.132 76.7414 140.005 77.7738C142.9 79.397 144.858 81.7012 145.204 85.4584C146.098 84.3887 146.8 83.5905 147.46 82.7549C148.86 80.9775 149.387 78.8595 149.759 76.6882C149.924 75.725 150.094 74.7564 150.196 73.7879C150.265 73.1493 150.196 72.5 150.222 71.8614C150.334 69.5678 150.249 67.3114 149.174 65.204C149.078 65.0177 149.03 64.7996 148.988 64.5867C148.312 61.2127 146.497 58.5306 143.927 56.3274C143.416 55.891 142.814 55.5398 142.213 55.2258C140.143 54.1508 137.823 54.1242 135.598 53.6879C135.194 53.608 134.763 53.6772 134.353 53.6772L134.348 53.6825ZM78.0387 225.174C79.0179 224.466 79.8747 223.844 80.7368 223.232C82.6154 221.891 84.4194 220.39 86.9047 220.353C88.3202 219.634 89.6879 220.39 91.0343 220.592C91.9869 220.736 93.0246 221.321 93.7005 222.018C94.8233 223.173 96.0899 223.072 97.3991 222.849C98.6869 222.63 99.9588 222.284 101.215 221.912C102.646 221.486 104.104 221.071 105.456 220.454C106.739 219.868 107.899 219.022 109.117 218.298C109.697 217.953 110.395 217.734 110.874 217.287C112.342 215.914 113.79 214.509 115.131 213.014C116.578 211.396 117.488 209.459 118.122 207.378C118.425 206.383 118.404 205.361 118.569 204.366C118.718 203.456 118.845 202.53 119.016 201.636C119.42 199.497 118.59 197.65 117.946 195.788C117.59 194.755 116.642 193.909 115.887 193.036C115.317 192.377 114.636 191.807 113.822 191.025C113.311 192.989 112.848 194.681 112.449 196.384C112.284 197.086 112.156 197.821 112.183 198.534C112.247 200.45 112.374 202.36 112.523 204.27C112.614 205.452 112.811 206.628 112.906 207.809C113.029 209.342 113.3 210.837 113.822 212.28C113.907 212.514 113.981 212.748 114.088 213.051C113.199 213.999 112.332 214.951 111.432 215.866C111.166 216.138 110.831 216.356 110.49 216.521C107.409 218.011 104.253 219.15 100.736 218.522C100.565 218.49 100.395 218.495 100.22 218.495C98.4581 218.495 96.6966 218.495 94.9298 218.501C94.6743 218.501 94.4136 218.517 94.1581 218.533C92.6681 218.639 91.1833 218.777 89.6932 218.847C88.5757 218.9 87.4528 218.815 86.3352 218.868C83.6797 218.996 81.1093 218.453 78.6028 217.708C75.8143 216.878 72.9672 216.127 70.5139 214.43C69.9923 214.068 69.3324 213.903 68.8215 213.525C66.7833 212.024 64.793 210.46 62.7548 208.959C62.079 208.459 61.3552 207.98 60.3388 207.932C60.2057 209.778 60.7911 211.428 61.435 213.019C62.0151 214.456 63.1167 215.526 64.2236 216.638C65.7669 218.192 67.555 219.155 69.5293 219.938C70.9662 220.507 72.3924 221.103 73.7654 221.811C75.4045 222.652 77.0063 223.583 78.044 225.174H78.0387ZM49.6794 199.704C48.9503 201.812 48.4022 203.855 48.4022 206.005C48.4022 207.16 48.4874 208.315 48.4927 209.475C48.4927 211.125 48.8812 212.7 49.3708 214.259C49.5091 214.706 49.8763 215.095 49.9455 215.542C50.1052 216.59 50.6959 217.346 51.3983 218.054C51.5793 218.235 51.8294 218.41 51.8879 218.634C52.154 219.682 52.9948 220.241 53.7133 220.911C54.155 221.321 54.6605 221.678 55.0384 222.135C55.9697 223.253 57.2256 223.913 58.4442 224.599C60.1791 225.568 62.1215 225.999 64.0107 226.568C67.1239 227.51 70.2052 228.548 73.1907 229.511C74.5211 228.415 75.8143 227.351 77.0595 226.329C76.2613 225.642 75.612 225.046 74.9255 224.493C74.3934 224.062 73.8505 223.615 73.2439 223.306C71.6048 222.471 69.9231 221.72 68.2628 220.917C66.8366 220.225 65.3731 219.586 64.0161 218.772C63.2231 218.298 62.6643 217.442 61.898 216.899C60.1738 215.686 59.3915 213.834 58.7263 212.014C58.1196 210.353 57.7577 208.544 58.3006 206.724C57.2682 206.053 56.289 205.436 55.3311 204.792C54.8361 204.457 54.3306 204.116 53.8995 203.706C52.6436 202.488 51.4196 201.232 50.1796 199.992C50.0945 199.907 49.9615 199.864 49.6741 199.704H49.6794ZM131.25 52.416C131.022 52.5543 130.915 52.5809 130.883 52.6448C129.228 55.7207 126.988 58.2858 124.194 60.3825C123.545 60.8721 122.933 61.4096 122.294 61.9152C121.725 62.3622 121.166 62.8199 120.564 63.219C120.187 63.4745 119.724 63.847 119.335 63.8044C118.196 63.6873 117.137 63.4638 116.339 62.3569C115.174 60.7391 114.04 60.2868 112.406 60.8509C112.124 60.9466 111.821 60.9945 111.539 61.1063C110.049 61.6917 108.798 62.5964 107.792 63.8417C108.016 64.0811 108.181 64.2248 108.309 64.3951C108.458 64.5973 108.58 64.8262 108.692 65.0018C108.037 67.2848 107.085 67.6467 104.009 66.8218C101.907 68.2587 101.869 68.2374 100.635 70.4299C99.8364 71.8455 99.2457 73.3302 100.411 74.8842C100.555 75.0757 100.597 75.3471 100.688 75.5866C103.061 76.3955 105.408 76.5179 107.787 75.7942C107.76 75.5121 107.723 75.2993 107.728 75.0864C107.771 73.7134 108.825 72.8087 110.15 73.1386C111.321 73.426 112.507 73.8251 112.587 75.3472C114.146 75.6558 115.078 74.6607 115.998 73.7985C117.185 72.6863 117.68 71.1164 118.335 69.6795C118.606 69.0888 118.915 68.6684 119.495 68.3917C121.086 67.6307 122.65 66.8271 124.242 66.0714C126.876 64.8208 129.127 63.1445 130.298 60.3719C130.878 58.9936 131.282 57.5408 131.793 56.1358C132.272 54.8107 131.889 53.64 131.245 52.416H131.25ZM50.0945 48.8238C49.1685 49.4837 48.365 50.0531 47.5667 50.6226C45.7414 51.9264 43.8309 53.0546 41.6862 53.7624C39.8662 54.3637 37.4129 53.2887 36.8169 51.5113C36.5242 50.6385 36.3699 49.6913 36.7211 48.7387C36.8861 48.2917 36.8967 47.7861 37.0085 47.1369C34.9756 47.4083 33.1502 47.5413 31.426 48.2384C29.5953 48.9835 27.8551 49.8882 26.1522 50.9046C24.7792 51.7242 23.7308 52.7672 22.7889 54.0284C21.3946 55.8964 20.905 58.0304 20.6496 60.2655C20.6336 60.4198 20.6921 60.5848 20.7347 60.8296C21.0221 60.6806 21.2509 60.5741 21.4638 60.4464C22.6505 59.7546 23.8213 59.0415 25.0187 58.3656C26.9398 57.28 29.127 56.9288 31.1865 56.2369C33.5121 55.4547 35.9548 55.13 38.4294 55.2258C40.3132 55.3003 42.1971 55.3695 44.081 55.4653C44.8047 55.5026 45.5232 55.6409 46.2469 55.6941C48.1627 55.8325 50.1264 55.4174 51.8932 56.2103C53.6654 55.5398 56.3688 53.8049 58.2793 52.118C55.5546 51.0217 52.8724 49.9467 50.0839 48.8238H50.0945ZM97.3618 37.8292C97.2181 36.8873 97.0319 35.8389 96.2762 34.9821C96.1112 34.7958 96.058 34.5191 95.9303 34.2956C95.6589 33.822 95.3928 33.343 95.0948 32.8854C94.2965 31.6667 92.982 31.1931 91.7634 30.5704C89.4697 29.4103 86.9898 28.8888 84.5152 29.3571C82.4025 29.7562 80.2366 30.2511 78.3208 31.4006C77.5545 31.8583 76.7402 32.2414 76.1176 33.1248C76.5912 33.6144 77.0595 34.0934 77.5225 34.5777C77.8684 34.9395 78.2463 35.2801 78.539 35.6792C79.1616 36.536 79.7417 37.4248 80.3377 38.2975C85.8403 37.7387 91.0396 39.165 96.1804 40.4847C96.5742 39.596 96.9201 38.8244 97.3618 37.8239V37.8292ZM84.9835 217.394C84.9995 217.277 85.0155 217.165 85.0314 217.048C82.312 216.564 79.9333 215.302 77.5332 214.036C75.6919 213.067 74.2231 211.726 72.9778 210.13C72.4882 209.496 71.9454 209.172 71.2429 208.916C70.2424 208.549 69.21 208.203 68.3 207.66C67.1026 206.947 66.2671 205.808 65.5753 204.622C64.6387 203.004 63.3881 201.663 62.0311 200.412C59.035 197.656 55.3789 196.229 51.4781 195.357C50.8129 195.208 50.0785 195.335 49.2909 195.335C49.8284 196.267 50.2222 197.076 50.7384 197.805C51.2546 198.534 51.856 199.215 52.4786 199.859C53.6707 201.088 54.9053 202.275 56.124 203.472C56.2464 203.595 56.3581 203.738 56.5071 203.813C58.3964 204.813 60.0035 206.325 62.1322 206.915C62.691 207.07 63.2178 207.437 63.6968 207.788C65.3624 209.001 66.9536 210.327 68.6672 211.471C70.5192 212.705 72.3871 213.999 74.42 214.877C76.8041 215.909 79.3372 216.638 81.9395 217.021C82.9507 217.17 83.9671 217.277 84.9782 217.399L84.9835 217.394ZM84.7281 58.0729C85.372 58.1315 86.0372 58.2539 86.7024 58.2326C88.2404 58.1847 89.7784 58.0623 91.3217 57.9771C91.7048 57.9559 92.0986 58.0091 92.4765 57.9399C95.2651 57.4503 98.0483 56.9394 100.832 56.4445C101.922 56.2476 103.035 56.1358 104.099 55.8591C106.089 55.3429 108.08 54.8054 110.027 54.1455C111.688 53.5867 113.3 52.8736 114.583 51.5964C115.12 51.0589 115.456 50.4682 115.466 49.6806C115.291 49.6327 115.168 49.5689 115.051 49.5742C113.471 49.6487 111.89 49.7392 110.315 49.8083C109.628 49.8403 108.931 49.7658 108.255 49.8562C106.563 50.0851 104.881 50.3831 103.194 50.6492C101.928 50.8514 100.635 50.9632 99.3894 51.2558C97.1383 51.7827 94.9138 52.4213 92.6734 53.0014C90.7256 53.5069 88.7726 53.9806 86.8355 54.518C86.1969 54.699 85.6062 55.0502 85.1113 55.2737C84.9729 56.2902 84.8665 57.0937 84.7334 58.0729H84.7281ZM22.0705 102.004C22.6984 101.386 22.7729 100.753 22.6878 100.093C22.5335 98.9116 22.3525 97.7355 22.1769 96.5222C19.9578 95.5536 17.6854 94.6436 15.9558 92.8981C13.5877 94.4786 13.0396 95.7931 13.3163 99.1085C14.3274 99.5502 15.4556 99.9919 15.1789 101.45C14.95 102.653 13.9442 102.929 12.9544 103.057C12.8267 104.585 12.6191 106.027 12.6032 107.474C12.5872 109.491 13.1939 109.986 14.4125 110.204C16.174 110.092 17.3714 109.268 18.3879 108.177C19.3351 107.16 20.1972 106.069 21.1658 104.925C20.6815 104.654 20.1813 104.372 19.6917 104.095C19.4149 102.935 19.7928 102.137 20.7667 101.631C21.2296 101.764 21.6341 101.886 22.0651 102.009L22.0705 102.004ZM99.2723 24.9454C99.2723 25.4137 99.2989 25.7543 99.2723 26.0949C99.1658 27.3082 98.325 27.883 97.1489 27.5743C96.7817 27.4785 96.4145 27.3934 96.0793 27.3082C94.967 28.5482 94.8233 28.8728 94.7542 30.3522C94.9511 30.4746 95.1586 30.613 95.3821 30.7354C96.6434 31.4272 97.2979 32.6725 98.0749 33.7794C98.5911 34.5191 98.8998 35.4132 99.2563 36.1369C101.279 35.3227 103.146 34.5723 105.014 33.8273C106.063 33.4069 106.627 32.6459 106.755 31.4591C105.722 31.1239 104.897 30.5811 105.004 29.3943C105.084 28.4684 105.77 28.0799 107.462 27.8989C107.489 27.5104 107.516 27.0954 107.542 26.6803C107.579 26.0417 107.563 25.3924 107.659 24.7591C107.904 23.1307 106.563 21.779 104.951 22.1568C102.827 22.6517 101.108 23.9609 99.2829 24.9401L99.2723 24.9454ZM49.094 151.266C48.9823 151.266 48.8705 151.256 48.7588 151.256C48.4607 151.958 48.0882 152.639 47.886 153.368C47.5986 154.39 47.5188 155.481 47.1835 156.482C46.8802 157.392 46.8323 158.217 47.1942 159.095C47.3219 159.403 47.3964 159.776 47.3485 160.1C47.0505 162.202 47.8221 163.975 48.9397 165.667C50.1052 167.439 51.7389 168.482 53.8091 169.03C54.0326 168.184 54.3359 167.418 54.421 166.625C54.5115 165.784 54.5701 164.869 54.3412 164.07C54.0751 163.139 53.5004 162.293 53.0374 161.42C51.675 158.829 50.483 156.173 49.8125 153.305C49.6475 152.602 49.3335 151.937 49.0887 151.256L49.094 151.266ZM68.598 41.7513C68.2255 41.7886 68.002 41.7673 67.8104 41.8364C66.3629 42.358 64.8995 42.8529 63.4786 43.4489C62.4568 43.88 61.5202 44.5133 60.4984 44.955C58.3272 45.8916 56.6295 47.3923 55.065 49.223C56.6721 50.1809 58.3804 50.564 59.8864 51.0589C63.1806 49.3879 66.3363 47.7914 69.524 46.1736C69.689 44.6357 69.0504 43.2733 68.5927 41.746L68.598 41.7513ZM126.131 129.65C125.742 132.928 125.354 136.19 124.955 139.569C125.801 139.362 126.136 138.867 126.392 138.324C127.163 136.696 127.807 135.041 128.153 133.247C128.515 131.347 129.292 129.57 130.351 127.925C131.591 126.004 132.634 123.987 132.857 121.646C132.932 120.88 133.012 120.108 133.193 119.363C133.688 117.33 133.507 115.398 132.442 113.498C131.022 113.36 129.537 113.355 128.201 112.237C128.153 112.807 128.127 113.163 128.116 113.264C128.861 114.062 129.505 114.637 130.005 115.308C131.469 117.282 131.543 119.421 130.527 121.598C130.053 122.62 129.691 123.636 129.606 124.78C129.563 125.398 129.351 126.058 129.037 126.595C128.329 127.808 127.605 129.054 126.126 129.65H126.131ZM79.3 22.7529C77.9216 23.2903 76.7988 23.7054 75.7025 24.1631C73.0576 25.27 70.4234 26.3929 67.7838 27.5158C66.7887 27.9415 65.7509 28.3034 64.9154 29.1336C66.5598 29.554 68.1084 29.8892 69.6198 30.3522C71.1684 30.8205 72.6798 31.4112 74.0634 31.9008C75.0373 31.2622 75.9207 30.7301 76.7402 30.1234C77.2085 29.7775 77.6502 29.3571 77.9908 28.8888C78.7997 27.7765 78.7625 26.3876 79.1031 25.121C79.284 24.4398 79.2308 23.6948 79.3 22.7529ZM45.736 141.815C45.8052 141.751 45.8691 141.693 45.9383 141.629C45.7893 141.198 45.619 140.772 45.4859 140.33C45.1507 139.229 44.8739 138.101 44.4908 137.015C43.9905 135.599 43.3892 134.226 42.8676 132.821C42.6601 132.263 42.3461 131.917 41.7873 131.645C41.2339 131.374 40.7815 130.874 40.3345 130.421C39.9514 130.038 39.6214 129.591 39.2861 129.16C38.1526 127.697 36.62 126.526 36.4444 124.418C36.3539 123.333 36.1676 122.311 36.6519 121.284C36.8328 120.896 36.9978 120.491 37.1096 120.081C37.3863 119.044 38.0994 118.394 38.9881 117.894C39.3234 117.703 39.6746 117.553 40.0471 117.373V114.424C38.3336 115.478 36.5987 116 34.7521 116.271C34.5924 117.064 34.4274 117.745 34.5179 118.554C34.6403 119.661 34.7787 120.747 35.0554 121.827C35.2789 122.689 35.3747 123.594 35.6727 124.429C36.3645 126.356 37.232 128.213 37.5885 130.256C37.8067 131.502 38.4772 132.582 39.334 133.513C41.021 135.349 42.4047 137.387 43.618 139.564C44.1236 140.474 44.7622 141.341 45.736 141.815ZM125.082 67.8116C125.796 68.0671 126.306 68.1788 126.754 68.4183C127.733 68.9398 128.866 69.3443 129.59 70.1212C130.681 71.292 132.001 71.6805 133.432 71.9626C133.89 72.053 134.353 72.0956 134.795 72.1541C136.833 69.6902 136.311 64.3685 131.708 62.3888C130.287 64.9805 127.77 66.3216 125.082 67.8116ZM153.383 93.9092C152.234 90.2958 151.111 86.7728 149.887 82.9199C148.711 85.2242 146.944 86.4642 145.087 87.4593C145.129 89.1357 145.39 90.5885 146.093 91.6847C146.747 91.9934 147.199 92.2063 147.652 92.4138C148.072 92.6054 148.493 92.8023 148.918 92.9779C149.392 93.1748 149.86 93.409 150.355 93.5207C151.292 93.7389 152.218 94.1061 153.383 93.9039V93.9092ZM30.8992 78.0612C32.4584 75.89 33.7995 73.4686 36.6998 72.516C35.8217 71.3559 37.2905 70.9834 37.3863 70.0255C33.9538 70.4352 30.9471 71.5687 28.4192 73.756C28.3394 76.1348 29.2335 77.6727 30.8992 78.0612ZM123.082 149.351C122.454 149.776 122.368 150.553 122.081 151.176C121.182 153.118 120.463 155.151 119.436 157.025C118.723 158.328 118.617 159.701 118.345 161.069C118.329 161.159 118.436 161.271 118.531 161.473C120.389 159.957 122.172 158.419 122.922 156.141C123.64 153.949 124.316 151.682 123.082 149.351ZM66.8791 39.9845C64.2502 38.8084 57.2628 41.1659 56.704 44.6357C60.0833 43.0924 63.5211 41.5225 66.8791 39.9845ZM40.1004 119.538C38.2378 121.923 37.5353 125.419 41.3989 128.591C40.9572 125.509 40.5421 122.609 40.1004 119.538ZM85.5902 238.595C84.5791 238.414 83.7649 238.271 83.1209 238.154C84.1853 240.426 84.7068 242.406 85.8616 244.87C87.1069 242.347 86.5641 240.655 85.5902 238.595ZM119.936 71.8721C121.262 71.5102 122.464 71.0632 123.71 70.8769C124.939 70.6907 126.205 70.7652 127.557 70.7226C125.418 68.3598 120.49 68.7589 119.936 71.8774V71.8721ZM127.972 115.755C127.86 115.797 127.743 115.845 127.632 115.888C127.632 116.441 127.658 116.989 127.626 117.543C127.578 118.346 127.584 119.171 127.392 119.948C127.131 121.023 127.137 122.045 127.504 123.12C127.85 122.332 128.148 121.582 128.504 120.864C129.138 119.597 128.935 118.283 128.733 116.989C128.664 116.548 128.238 116.165 127.972 115.755ZM92.2743 70.4459L92.253 70.68C94.0038 71.1324 95.7546 71.5847 97.5693 72.0583C97.8141 71.3665 98.0323 70.7492 98.2824 70.0361C97.548 70.0361 96.9414 69.8818 96.4571 70.068C95.4513 70.4565 94.4296 70.3926 93.4078 70.4459C93.0299 70.4672 92.6521 70.4459 92.2743 70.4459ZM82.7537 56.3115C82.6739 56.2369 82.5888 56.1571 82.5089 56.0826C80.7954 56.6999 79.0765 57.3173 77.3256 57.9452H82.1098C82.328 57.3864 82.5409 56.8489 82.7537 56.3115ZM26.9345 77.6089C26.7482 79.695 27.0675 80.0888 29.5953 80.7487C29.7444 80.4028 29.8987 80.0356 30.037 79.7163C28.9514 78.9819 27.9775 78.3167 26.9292 77.6089H26.9345ZM55.1714 42.326C55.9963 41.6449 56.7892 40.8839 57.6886 40.2665C58.5933 39.6439 59.5937 39.1703 60.8018 38.4838C57.3959 38.819 55.6184 40.1335 55.1714 42.3207V42.326ZM81.5617 41.6555C81.7586 41.6981 81.8916 41.7726 82.0034 41.746C83.2646 41.4267 84.5259 41.0967 85.9148 40.7349C84.3556 40.043 82.9081 39.9526 81.3648 40.7082C81.434 41.0382 81.5031 41.3522 81.5617 41.6555ZM112.752 45.684C113.848 46.1417 114.54 46.9825 115.695 46.8654C115.466 46.2747 115.275 45.7692 115.083 45.2743C114.301 45.0614 113.625 45.1253 112.752 45.684ZM53.3461 46.3067C52.8086 46.7484 52.2285 47.2273 51.5314 47.8074C52.0635 47.967 52.4041 48.0735 52.766 48.1852C52.9895 47.4668 53.1811 46.8335 53.3461 46.3067ZM127.392 123.61C126.748 124.301 126.844 124.935 127.126 125.589C127.206 124.983 127.291 124.376 127.392 123.61Z" fill="#232323"/>
<path d="M45.6615 102.083C45.6615 102.083 45.7467 102.253 45.8318 102.424C45.6828 102.716 45.5232 103.02 45.3688 103.323C45.0762 103.892 44.6611 104.212 43.9746 104.307C42.8677 104.456 41.8672 104.861 40.9465 105.601C38.9402 107.224 36.7264 108.538 34.337 109.544C33.4057 109.938 32.5595 109.922 31.6069 109.571C29.2228 108.692 27.8711 106.942 27.1367 104.542C27.1793 104.435 27.2378 104.27 27.3177 104.121C27.3762 104.015 27.4667 103.93 27.5731 103.802C28.1425 104.009 28.7013 104.217 29.1483 104.377C29.7603 105.398 30.2606 106.34 30.8619 107.218C31.5857 108.267 32.2562 108.458 33.4057 107.916C35.6621 106.857 37.812 105.627 39.7704 104.047C40.6432 103.339 41.3776 102.392 42.5377 102.04C42.8038 101.961 43.0539 101.71 43.2348 101.476C44.5174 99.8265 45.2145 97.9214 45.8372 95.7661C44.8739 96.4632 44.081 96.9848 43.3519 97.5808C42.245 98.4855 40.9572 98.6983 39.6055 98.693C39.0467 98.693 38.4879 98.5813 37.9344 98.5919C37.397 98.6079 36.8595 98.7143 36.322 98.7888C36.2421 98.7995 36.1623 98.8527 36.0931 98.9006C33.2886 100.917 30.6544 99.8532 28.0467 98.4323C27.7913 98.2939 27.5518 98.0757 27.3762 97.8416C26.8866 97.1976 26.4289 96.5218 25.9127 95.7927C26.0085 95.5745 26.1203 95.3191 26.248 95.0211C26.9877 95.1169 27.6316 95.2978 28.1372 95.7927C28.4459 96.0907 28.7173 96.4313 28.978 96.7666C30.3244 98.4802 32.2296 98.8686 34.0922 97.8203C35.1139 97.2455 36.1783 96.8038 37.4023 97.0646C37.5672 97.1018 37.7535 97.0433 37.9185 97.0806C40.2707 97.5435 41.9523 96.3621 43.5275 94.8508C44.4854 93.9301 45.4966 93.0574 46.4864 92.1686C46.5822 92.0835 46.6833 91.9611 46.8004 91.9451C48.0403 91.7429 48.4022 90.6892 48.961 89.7952C49.2697 89.2949 49.722 88.8851 50.1743 88.3583C48.5619 88.0603 47.0133 88.1082 45.4593 88.3423C43.2615 88.6776 41.2658 89.5078 39.3607 90.6466C38.1101 91.3917 36.785 92.0728 35.4066 92.5358C33.7197 93.1052 31.9635 93.1531 30.2233 92.2697C30.3297 91.9717 30.4149 91.7376 30.5426 91.3704C31.0269 91.3704 31.5378 91.3278 32.038 91.381C33.1556 91.4981 34.172 91.1788 35.1459 90.6945C36.7903 89.8697 38.4081 88.9863 40.0578 88.1667C41.6862 87.3631 43.4211 86.9055 45.2305 86.7245C47.8807 86.4585 50.5309 86.8895 53.1811 86.7405C53.9847 86.6926 54.7989 86.5968 55.5812 86.4106C57.8056 85.8784 59.8918 85.0535 61.7331 83.6167C62.7708 82.8078 64.0161 82.2543 65.1443 81.5572C65.8361 81.1314 66.48 80.6206 67.1771 80.1948C68.0872 79.636 69.0078 79.0773 69.9657 78.6036C72.4243 77.3796 74.9468 76.3898 77.6556 75.7778C79.3745 75.3893 80.7475 75.6341 82.1684 76.5654C81.8384 77.3158 81.3648 77.534 80.5985 77.3424C80.0716 77.2147 79.4809 77.1668 78.9541 77.2679C75.4524 77.9225 72.2434 79.3487 69.21 81.1687C67.076 82.4512 65.0272 83.8721 62.9198 85.2079C60.988 86.4318 58.9977 87.4962 56.6828 87.874C55.4535 88.0762 54.2508 88.502 53.0693 88.9118C52.1061 89.247 51.4356 90.0027 50.8821 90.8382C50.6693 91.1575 50.4724 91.4981 50.318 91.8493C49.4932 93.7279 48.2585 95.3883 47.6838 97.4105C47.2421 98.9591 46.4225 100.396 45.6882 102.078L45.6615 102.083Z" fill="#232323"/>
<path d="M51.9145 119.166C52.0423 118.777 52.1221 118.543 52.2126 118.266C51.9731 118.075 51.7442 117.899 51.4994 117.708C51.26 115.547 52.2711 113.892 53.8729 112.711C55.3098 111.652 56.9276 110.757 58.5826 110.092C61.765 108.81 64.958 109.134 68.0659 110.523C69.6783 111.242 71.211 112.104 72.5946 113.2C73.2439 113.716 74.0102 114.201 74.1965 115.111C74.2976 115.616 74.2923 116.148 74.1645 116.686C74.1911 116.766 74.2018 116.861 74.255 116.92C75.2874 118.165 74.867 119.581 73.2865 119.911C71.0886 120.374 69.0185 121.14 67.0228 122.146C66.496 122.412 65.8787 122.572 65.2933 122.63C61.7597 122.981 58.2633 122.891 54.9639 121.353C53.8357 120.826 52.8299 120.097 51.9199 119.166H51.9145ZM72.6745 118.011C72.3498 117.665 72.2061 117.505 72.0571 117.362C70.4606 115.797 68.4544 115.025 66.347 114.547C62.2227 113.599 58.5294 114.403 55.4535 117.463C54.9745 117.942 54.6126 118.431 54.767 119.208C55.7462 120.028 56.7839 120.789 58.1356 120.906C59.5033 121.023 60.8709 121.087 62.2386 121.199C63.8777 121.332 65.3731 120.954 66.8206 120.166C68.332 119.347 69.9923 118.894 71.674 118.538C71.9773 118.474 72.2434 118.25 72.6798 118.022L72.6745 118.011ZM71.9294 115.047C71.9401 114.914 71.9614 114.85 71.9454 114.829C70.0083 112.881 67.7945 111.529 65.0325 110.933C63.154 110.529 61.4244 110.736 59.764 111.401C58.2261 112.013 56.7839 112.902 55.379 113.791C54.7457 114.19 54.2667 114.861 53.9208 115.824C54.288 115.637 54.453 115.59 54.5754 115.488C56.257 114.11 58.1037 113.099 60.3122 112.844C62.1109 112.636 63.9203 112.487 65.6871 112.897C67.688 113.36 69.6783 113.919 71.4771 114.962C71.5995 115.031 71.7698 115.02 71.9294 115.052V115.047Z" fill="#232323"/>
<path d="M116.839 116.739C116.222 117.867 115.189 118.538 114.178 119.129C112.39 120.172 110.474 120.901 108.362 121.076C107.17 121.177 105.994 121.465 104.786 121.326C103.934 121.231 103.061 121.241 102.236 121.039C101.161 120.778 100.134 120.315 99.0647 120.017C98.0377 119.73 96.9946 119.48 95.9462 119.331C95.3555 119.246 94.8819 119.059 94.4668 118.65C93.7058 117.889 93.6685 117.415 94.3071 116.521C94.4029 116.383 94.4987 116.239 94.6477 116.026C94.2752 115.803 93.9346 115.595 93.5568 115.366C93.5302 114.424 94.0038 113.716 94.5041 113.019C96.0367 110.901 98.0802 109.422 100.475 108.475C102.38 107.719 104.349 107.16 106.467 107.634C107.127 107.783 107.84 107.703 108.527 107.719C109.9 107.746 111.145 108.155 112.268 108.943C113.566 109.853 114.881 110.747 116.185 111.657C116.994 112.221 117.105 112.636 116.68 113.472C115.966 113.44 115.466 113.174 114.854 112.626C113.497 111.396 111.901 110.433 110.379 109.385C110.145 109.225 109.804 109.145 109.517 109.15C107.606 109.172 105.69 108.64 103.79 109.065C102.891 109.268 102.029 109.656 101.156 109.986C100.8 110.124 100.448 110.305 100.129 110.518C99.3787 111.008 98.5964 111.465 97.9153 112.051C97.2713 112.604 96.7285 113.285 96.1751 113.935C95.9995 114.137 95.9303 114.43 95.9675 114.834C96.1644 114.728 96.3826 114.648 96.5582 114.515C98.4474 113.099 100.613 112.194 102.848 111.63C104.525 111.21 106.334 111.274 108.09 111.231C110.24 111.178 112.039 112.189 113.811 113.28C115.189 114.126 116.062 115.35 116.834 116.739H116.839ZM96.1272 117.314C96.5423 117.495 96.8562 117.718 97.1862 117.756C99.1659 117.984 101.034 118.58 102.88 119.283C103.594 119.554 104.381 119.799 105.126 119.773C106.712 119.719 108.303 119.57 109.868 119.299C111.539 119.012 113.077 118.362 114.146 116.835C113.976 116.484 113.886 116.063 113.625 115.819C111.597 113.871 109.171 112.748 106.35 112.7C104.179 112.657 102.098 113.184 100.129 114.121C98.6071 114.845 97.2394 115.765 96.1218 117.314H96.1272Z" fill="#232323"/>
<path d="M75.7611 156.705C75.3353 157.285 75.0852 157.626 74.7872 158.03C74.1858 157.833 73.6271 157.652 73.0896 157.471C72.8501 156.987 72.6479 156.567 72.3871 156.04C72.5414 155.678 72.7224 155.257 72.9512 154.736C73.4887 154.81 73.9836 154.88 74.5956 154.97C75.5269 154.443 76.5646 153.858 77.6024 153.272C78.656 152.676 79.8481 152.506 81.0029 152.277C81.9608 152.086 82.9826 152.096 83.9618 152.192C84.7068 152.267 85.4359 152.607 86.1596 152.863C86.5215 152.99 86.8568 153.187 87.2187 153.358C87.9637 152.98 88.6821 152.591 89.4218 152.245C90.9013 151.553 92.3754 151.335 94.0411 151.729C96.223 152.245 98.1015 153.299 100.033 154.427C100.267 154.305 100.523 154.166 100.794 154.023C101.401 154.225 102.008 154.427 102.609 154.624C102.955 155.124 103.029 155.71 102.556 156.018C102.162 156.279 101.555 156.221 101.002 156.098C100.603 156.253 100.198 156.396 99.8098 156.572C98.3516 157.226 96.8829 157.423 95.3023 156.955C93.9932 156.567 92.5776 156.551 91.4334 157.349C89.5708 158.653 87.7189 158.392 85.7978 157.679C84.5152 157.2 83.2487 157.173 81.897 157.493C81.0987 157.679 80.194 157.53 79.3585 157.407C78.1398 157.226 76.9318 156.934 75.7664 156.7L75.7611 156.705ZM77.8259 155.422C79.0818 156.024 80.0237 156.157 81.104 155.923C82.6686 155.582 84.2651 155.657 85.8191 156.125C86.5534 156.348 87.2878 156.588 88.0009 156.811C88.565 156.577 89.1079 156.418 89.5868 156.146C91.3589 155.14 93.2375 154.933 95.1693 155.46C96.1964 155.742 97.1223 155.853 98.0696 154.943C97.0638 154.454 96.1219 153.943 95.1427 153.528C94.3072 153.171 93.4504 153.113 92.5031 153.315C91.3057 153.565 90.252 154.119 89.1398 154.55C87.7242 155.103 86.3406 155.39 85.0581 154.177C84.8026 153.938 84.3769 153.81 84.0097 153.762C81.8118 153.485 79.9066 154.305 77.8205 155.422H77.8259Z" fill="#232323"/>
<path d="M79.9173 127.223C79.3692 127.106 78.9594 127.015 78.5656 126.93C78.0121 126.281 77.8206 125.579 77.762 124.77C77.6609 123.455 77.5066 122.146 76.9957 120.901C76.8201 120.48 76.8361 119.98 76.7403 119.522C76.4582 118.139 76.2453 116.739 75.8622 115.382C75.2076 113.062 74.4147 110.747 72.7862 108.927C71.4878 107.474 69.7422 106.623 67.8158 106.091C64.9367 105.292 62.2174 105.942 59.4926 106.75C58.1782 107.139 56.8478 107.485 55.5652 107.964C54.6925 108.288 53.8623 108.767 53.064 109.252C52.037 109.869 51.0844 110.609 50.052 111.215C49.1526 111.742 48.2 111.833 47.2421 111.104C47.3592 110.779 47.4709 110.47 47.5454 110.273C48.4129 109.816 49.2324 109.502 49.9083 108.996C52.2498 107.24 54.8681 106.091 57.678 105.393C59.6257 104.909 61.5947 104.297 63.5744 104.196C67.0441 104.02 70.2691 105.053 73.1588 107.038C76.0059 108.991 77.1181 112.003 78.0068 115.105C78.5975 117.16 79.0233 119.262 79.449 121.358C79.7789 122.987 80.0184 124.637 80.2473 126.286C80.2845 126.563 80.045 126.877 79.9173 127.218V127.223Z" fill="#232323"/>
<path d="M83.8287 73.3621C83.0305 74.2348 82.2269 74.304 81.2903 73.5483C79.8747 72.4042 78.3314 72.1966 76.6232 72.6596C76.2613 72.7607 75.8515 72.7554 75.4737 72.7181C73.2811 72.484 71.211 73.0853 69.1515 73.6548C67.6667 74.0645 66.2246 74.6393 64.7717 75.1608C64.3726 75.3045 63.9522 75.4801 63.6329 75.7462C62.079 77.0713 60.1632 77.5609 58.2899 78.1516C57.0659 78.5348 55.8153 78.8541 54.6339 79.3437C53.543 79.8013 52.4414 79.631 51.3398 79.7055C48.6257 79.8918 45.9915 80.3867 43.6286 81.8502C42.7452 82.3983 42.3621 82.3664 41.1487 81.648C41.1487 81.036 41.5798 80.7167 42.0428 80.4985C43.0486 80.0248 44.0544 79.5193 45.1134 79.1893C46.9547 78.6146 48.8173 78.1516 50.7863 78.1729C52.766 78.1889 54.6818 77.8483 56.4805 76.8797C57.332 76.422 58.3804 76.3316 59.2691 75.9271C60.8284 75.2193 62.3078 74.32 63.8777 73.6388C65.2879 73.0321 66.7674 72.5585 68.2468 72.1381C70.3063 71.5474 72.3818 70.9247 74.5796 71.2174C74.7446 71.2387 74.9362 71.2387 75.0905 71.1802C77.315 70.3287 79.4011 71.2174 81.4978 71.7336C82.4238 71.9625 83.1263 72.5957 83.8181 73.3461L83.8287 73.3621Z" fill="#232323"/>
<path d="M88.565 119.113C88.8897 117.41 89.1824 115.771 89.5229 114.137C89.6879 113.349 89.7997 112.498 90.1935 111.833C90.7735 110.848 91.4494 109.837 92.3168 109.113C94.4562 107.331 96.6114 105.532 99.267 104.521C101.273 103.754 103.317 103.142 105.483 103.025C105.775 103.009 106.084 102.967 106.361 102.866C107.579 102.413 108.793 102.52 110.043 102.727C112.076 103.068 114.083 103.478 115.993 104.276C117.579 104.941 119.09 105.75 120.41 106.868C120.628 107.054 120.761 107.341 121.011 107.692C120.697 107.879 120.399 108.203 120.155 108.166C119.622 108.081 119 107.943 118.617 107.602C117.009 106.149 115.104 105.282 113.061 104.76C111.661 104.404 110.187 104.313 108.75 104.111C108.622 104.095 108.489 104.084 108.367 104.111C105.547 104.606 102.678 104.962 100.033 106.128C98.7933 106.676 97.6013 107.432 96.5529 108.294C95.2704 109.342 93.892 110.295 92.9874 111.79C92.0295 113.371 91.4281 115.02 91.2365 116.84C91.178 117.394 91.1407 117.958 91.0183 118.501C90.7469 119.714 90.3691 119.89 89.1824 119.443C89.028 119.384 88.8843 119.283 88.5757 119.113H88.565Z" fill="#232323"/>
<path d="M78.4485 144.401C78.7359 143.944 78.8902 143.693 79.0445 143.438C80.1515 143.475 81.0987 143.832 81.9715 144.407C83.7542 145.588 85.5955 145.524 87.4741 144.662C88.0595 144.396 88.6289 144.071 89.2462 143.901C90.2786 143.608 91.3323 143.332 92.3435 144.034C92.5776 144.194 92.9076 144.22 93.1683 144.3C94.4242 143.693 95.1161 142.315 94.8021 140.995C94.6052 140.17 94.3604 139.356 94.0943 138.553C93.8921 137.946 93.626 137.366 93.3493 136.674C93.4238 136.525 93.5568 136.264 93.6686 136.041C93.7537 136.004 93.8016 135.966 93.8282 135.977C94.4296 136.179 95.0362 136.392 95.6376 136.6C96.4039 138.436 97.1649 140.261 97.0532 142.198C96.9361 144.268 95.9409 145.705 94.2912 145.902C93.3865 146.008 92.4286 145.71 91.4973 145.567C91.162 145.519 90.8374 145.402 90.5394 145.322C90.2946 145.423 90.0764 145.481 89.9008 145.593C86.9845 147.435 84.0363 147.126 81.0774 145.726C80.2313 145.327 79.4064 144.891 78.4485 144.412V144.401Z" fill="#232323"/>
<path d="M90.1935 164.091C89.475 163.714 88.8471 163.879 88.1553 164.022C86.2341 164.432 84.3343 164.437 82.5089 163.267C82.6207 162.931 82.7218 162.628 82.8123 162.362C83.7276 162.49 84.5631 162.665 85.4093 162.708C85.9521 162.734 86.5109 162.607 87.0483 162.495C88.4958 162.197 89.9327 162.021 91.3163 162.745C91.5079 162.846 91.7102 162.921 91.8804 163.048C92.8969 163.804 92.9554 164.437 92.1093 165.395C91.1141 166.529 90.1722 166.657 88.6821 165.858C88.6928 164.906 89.7837 164.884 90.1882 164.097L90.1935 164.091Z" fill="#232323"/>
<path d="M79.1137 145.423C78.7944 146.03 78.4325 146.227 77.8844 146.078C76.0697 145.578 74.7127 144.731 73.9144 142.8C73.1215 140.884 73.9251 139.724 75.048 138.361C75.6653 138.58 76.256 138.792 76.9478 139.037C76.5221 139.889 76.1336 140.666 75.7451 141.443C76.1123 142.337 76.2879 143.3 76.836 143.944C77.3788 144.588 78.2889 144.912 79.1137 145.423Z" fill="#232323"/>
</g>
<defs>
<clipPath id="clip0_2101_3216">
<rect width="174.36" height="249.172" viewBox="0 0 174 250" transform="translate(0.640015 0.523926)"/>
</clipPath>
</defs>
 <style>
    path {
        fill: black;
    }

    @media (prefers-color-scheme: dark) {
        path {
            fill: white;
        }
    }
 </style>
</svg>
